<svg id="a4b21eac-e8dd-40d3-a2aa-eecb9c07271e" data-name="Layer 1" xmlns="http://www.w3.org/2000/svg" viewBox="0 0 774.89 263.56">
  <defs>
    <style>
      .c3219883-682c-4957-bcfa-f0baf036aa9a {
        fill: #00274c;
      }
    </style>
  </defs>
  <title>logo</title>
  <path class="c3219883-682c-4957-bcfa-f0baf036aa9a" d="M623.9,37.3c0,.08-.49,1.14-.79,1.76s-.42.76.19-.68A6.11,6.11,0,0,1,623.9,37.3Z"/>
  <path class="c3219883-682c-4957-bcfa-f0baf036aa9a" d="M513,156.32a.07.07,0,0,1,0-.06C512.41,156.68,512.73,156.52,513,156.32Z"/>
  <g>
    <path class="c3219883-682c-4957-bcfa-f0baf036aa9a" d="M385.19,163.49c-.81,3.83-1.56,7.45-2.67,11.32-.32,1-.63,2.08-1,3.14-1.27,4.2-2.59,8.55-4.13,12.69a12,12,0,0,1-1.32,3.88,8.71,8.71,0,0,0-1.74,3.62c-.15.49-.3,1-.47,1.46L373.6,201a116.66,116.66,0,0,1-4.06,15.07,15.14,15.14,0,0,1-3.69,7.07,6,6,0,0,1-4.69,3,5.14,5.14,0,0,0-1.92.78,10.2,10.2,0,0,1-1.3.63c-1.87.68-4,.37-6.22-.9l-.09-.08a2.33,2.33,0,0,0-1-.51h-.08l-.07,0a1.62,1.62,0,0,0-1.1-.11s-.19.1-.31.45a2.27,2.27,0,0,1-.78,1.64,1.28,1.28,0,0,1-.89.38,1.13,1.13,0,0,1-.36-.06,1,1,0,0,1-.6-.84,4.17,4.17,0,0,0-.65-1c-2.58-.66-4.4-2.39-6.5-4.39l-.35-.34c-2.56-2.12-3.75-5.41-3.44-9.5a67.22,67.22,0,0,0,.14-8.14l-.46-18.74c-.18-7.47,0-15.06.48-22.55.07-3.9.23-7.9.39-11.75s.32-7.84.39-11.76c.12-2.06.16-4.22.19-6.31s.07-4.28.19-6.33c-.08-3.3-.17-6.75-.59-10.13-.19-7.56,0-14.84.15-21.89-.08-3.11-.15-6.32,0-9.51-.4,1.65-.89,3.23-1.36,4.77-.62,2-1.26,4.11-1.71,6.32a14.13,14.13,0,0,1-2.34,5.72c-.32.54-.64,1.08-.94,1.65-.54,1.24-1.1,2.49-1.66,3.74-1.71,3.84-3.32,7.48-4.77,11.34a70.23,70.23,0,0,0-3.77,12c-.33,1.34-.62,2.75-.91,4.11a64.74,64.74,0,0,1-1.89,7.59,60.27,60.27,0,0,1-2.56,7.25,44.88,44.88,0,0,1-2.87,6.7c-.79,1.6-1.61,3.26-2.29,5-1.76,4-3.3,8.21-4.79,12.28l-1.3,3.54c-.84,2.05-1.64,4.17-2.42,6.23-1.33,3.53-2.71,7.18-4.35,10.67a10.91,10.91,0,0,1-3,4.64,7,7,0,0,1-7.21,2.68c-1.3-.3-2.07-.23-2.88.91a5.14,5.14,0,0,1-2.69.74,1.46,1.46,0,0,1-1.09-.25c-1.29-1.23-2.89-1.51-4.57-1.81-3-1-4.86-2.44-5.32-6.43a78.29,78.29,0,0,1-1.06-15.39c.13-2.08.16-4.21.19-6.46s.07-4.32.18-6.51c.11-2.52.13-5.1.15-7.59s0-5.15.16-7.74l-.23-9.17c.12-3.63.23-7.36.34-11.06l.23-7.73c.12-2,.16-3.93.19-5.79s.08-3.89.21-5.82c.09-3.07.28-6.13.46-9.09s.37-5.93.46-9c.57-4.87.8-9.69,1-14.35.28-2.78.56-5.63.83-8.47s.54-5.59.81-8.3c.89-5.84,1.43-11.73,2-17.76a172.58,172.58,0,0,1,2.62-18.52,62.37,62.37,0,0,0,1.16-7.83,5.29,5.29,0,0,1,4-5.61,10.43,10.43,0,0,1,3.47-.59A17.31,17.31,0,0,0,289,11.5a1.55,1.55,0,0,1,.81.2c.1,0,.25.13.3.11h.14l.12.07a10.47,10.47,0,0,0,3.31,1.56l.1,0a10.19,10.19,0,0,1,3.65,3.13l.06.1a3,3,0,0,0,1.17,1.42,10.29,10.29,0,0,1,3.42,4.37c.32.61.65,1.23,1,1.85,1.17,2.54.88,5.38.6,8.13a55.68,55.68,0,0,1-1.21,8.38c-.44,2.25-.9,4.58-1.14,7a22.67,22.67,0,0,0-.22,4.72,75.11,75.11,0,0,0-.29,12.15c.07,2.39.15,4.87.08,7.31a11.66,11.66,0,0,1-.28,3.54,31.46,31.46,0,0,0-.47,7.7,87.13,87.13,0,0,1-.11,9.6,75.59,75.59,0,0,0,.13,8.11c.07,1.36.14,2.73.17,4.1-.12,1.9-.08,3.73,0,5.67s.1,3.89,0,6a147.1,147.1,0,0,1-.27,17.41,20,20,0,0,1-.28,3.38,17.09,17.09,0,0,0-.23,4.46,27.79,27.79,0,0,0,1-3.91c3.34-13.18,7.13-25.53,11.15-38.6l1.45-4.71c3.6-12.13,8.32-24.3,12.46-34.76,2.1-4.66,4.14-9.45,6.11-14.09s4.05-9.51,6.16-14.19a55.58,55.58,0,0,1,3.29-6.26,4.36,4.36,0,0,1,2.24-2.3,10.36,10.36,0,0,0,4.06-4.32,4.77,4.77,0,0,1,3.58-2.19c.26-.06.51-.11.75-.18a8.77,8.77,0,0,1,7.89.56,22.23,22.23,0,0,1,8.88,8.13,28.88,28.88,0,0,1,3.81,14.12,12.06,12.06,0,0,1-.28,3.56c-.3,1.75-.52,3.63-.74,5.62-.2,1.71-.4,3.49-.68,5.26a34.74,34.74,0,0,0-.61,5.83c0,1-.1,2-.19,3-.08,1.35-.2,2.71-.32,4.07a74.25,74.25,0,0,0-.4,8.17c-.14,1.58-.18,3.22-.23,4.8s-.09,3.25-.23,4.81a141.88,141.88,0,0,0,0,15.57c.06,1.74.12,3.46.16,5.17-.12,2.71-.25,5.49-.37,8.26-.1,2.17-.19,4.33-.29,6.43l0,.12a3.45,3.45,0,0,0-.12,1.22,4.72,4.72,0,0,1-.13,1.44c.08,3.56-.13,7.06-.34,10.44-.11,1.83-.23,3.67-.3,5.55l0,.92c-.23,3.91-.47,7.94-1,11.77a18.68,18.68,0,0,1-.43,4.06l-.14.74a13.83,13.83,0,0,0-.66,3.38c-.07.59-.13,1.17-.23,1.75-.13,1.68-.35,3.43-.56,5.12-.14,1.12-.28,2.28-.4,3.42,0-.06,0-.13,0-.2a24.94,24.94,0,0,1,.8-2.79l0-.19c2.45-8.7,5-17.7,7.13-26.2.3-1,.61-2.08.92-3.12a63.1,63.1,0,0,0,2.49-10.53c.13-1.1.33-2.18.53-3.33.25-1.34.5-2.72.65-4.19a24.08,24.08,0,0,1,2.26-7,10.39,10.39,0,0,0,1.59-3.34l.61-2.56c1-4.39,2.12-8.94,3.44-13.26,2.45-9.06,11.12-34.47,14.76-44.06a119.76,119.76,0,0,1,6.17-13.5,70.35,70.35,0,0,1,6.6-10.79,14.83,14.83,0,0,1,5.53-4.71,4.88,4.88,0,0,1,2.22-.43h.08l.07,0a4.14,4.14,0,0,0,1.43.11,7.61,7.61,0,0,1,2,.14l.37.08v.38c0,.59.17,1.62,1.08,1.9l.33.1v.35a.78.78,0,0,1,.36.66v.12l0,.1a4.48,4.48,0,0,0-.24,2,7.16,7.16,0,0,1-.28,2.62,2.85,2.85,0,0,1-.09.39.63.63,0,0,0,0,.2c1.28.8.87,2.13.54,3.2a7.65,7.65,0,0,1-.29.8,3.19,3.19,0,0,0-.35,1.89c.54.64-.11,1.32-.39,1.62a63,63,0,0,0-3.51,6.43,45.28,45.28,0,0,0-3.42,11.54,11,11,0,0,1-1.3,4.6c-2.47,6.66-9,26-11.25,33.34A55.75,55.75,0,0,1,402.44,99a54.89,54.89,0,0,0-1.86,5.49c-.19.85-.35,1.71-.5,2.55a29.65,29.65,0,0,1-1.37,5.4l-.1.61a18.4,18.4,0,0,0-.43,4c-1.16,6.67-2.94,13.13-4.65,19.37q-.81,2.91-1.58,5.8c-1.85,5.62-3.43,9.87-5.14,13.82a6,6,0,0,0-.58,2.54v.06l0,.06C385.86,160.3,385.52,161.9,385.19,163.49Z"/>
    <path class="c3219883-682c-4957-bcfa-f0baf036aa9a" d="M207,23.19a15.06,15.06,0,0,1,.94,8.1,61.67,61.67,0,0,1-4.27,13.89l-3.23,7.06c-1.91,4.07-3.83,8.21-5.75,12.48-2.28,5.55-5,11.33-8.94,18.7a13.33,13.33,0,0,0-1.65,3.36,7.3,7.3,0,0,1-.64,2l-.74,1.11a8.83,8.83,0,0,0-2.35,3.94,89.76,89.76,0,0,1-6.66,13.18l-1,1.78a42.48,42.48,0,0,0-2.32,4.68c-.51,1.24-1.11,2.49-1.79,3.8-2.55,5.21-5.18,10.42-8.2,16.07-2.12,4.27-4.54,8.75-7.06,13.35-1.79,3.23-3.53,6.46-5.25,9.76l-1,2.08a41.77,41.77,0,0,1-3.6,6.73,24.87,24.87,0,0,0-2.79,4.67,29.3,29.3,0,0,1-1.51,2.89c-1.38,2.12-2.62,3.84-3.87,5.48-.6.84-1.24,1.72-1.85,2.63a44.49,44.49,0,0,0-4.74,7.23c-1.58,2.65-3.09,5.34-4.61,8.17l.14,0c3.12-.54,60.09-7.6,73.48-3.37a11.27,11.27,0,0,1,4.91,2.9,8.85,8.85,0,0,1,2.18,4.47v0a1.51,1.51,0,0,0,.07.37c-.14,6.36-3.06,13-19.88,13-18.16,0-29.45,2-49.67,6.36-7.23,1.58-15.2,3.46-24.31,5.68-34.47,8.41-31.27-15.5-31.27-15.5a9.25,9.25,0,0,1,1.11-4.07c4.8-11.4,10-22.53,15.6-33.73,3.29-6.26,6.25-12.41,9.28-18.6,3.09-6.52,6.26-13,9.69-19.5,1.31-2.56,2.55-5.18,3.8-7.84,2.38-4.74,4.74-9.65,7.46-14.53,2-3.9,4.27-7.83,6.49-11.8s4.47-7.77,6.53-11.64c1-1.51,1.91-2.82,2.69-4.06s1.71-2.66,2.65-4a47.6,47.6,0,0,0,2-4.54,36.41,36.41,0,0,1,2.39-5.38c1.45-2.66,2.89-5.49,4.34-8.24l7.9-15.47,8.88-20a6.23,6.23,0,0,0,1.11-3.1,6.92,6.92,0,0,0-2.22.74,41,41,0,0,0-5.72,2.36,51.73,51.73,0,0,1-5,2.25c-6.72,2.69-11.2,8.14-15.53,14-1,1.41-2.19,2.79-3.23,4.17a62,62,0,0,0-6.32,8.95,5.26,5.26,0,0,1-3,2.55,24.75,24.75,0,0,0-3,2.52c-1.91,2.43-5.65,3-9.14,1.25l-.61-.47c-2.08-.07-4.34-.27-5.85-1.92a6.61,6.61,0,0,1-1.25-5.38c1.25-6.93,4.75-12.17,8-16.44,1.72-2.12,3.23-4.24,4.68-6.19s2.82-4,4.34-5.82a55,55,0,0,1,19.4-16c2.12-.94,4.17-2,6.26-3C156.08,6,159,4.59,162,3.25A44.64,44.64,0,0,1,177.87.09l2-.07a27.1,27.1,0,0,1,7.17.54,22.42,22.42,0,0,1,9.55,4.94,19.75,19.75,0,0,1,4.07,6.19,5.25,5.25,0,0,0,1.21,1.85A11.76,11.76,0,0,1,203.09,15a26.21,26.21,0,0,1,3.17,6.39Z"/>
    <path class="c3219883-682c-4957-bcfa-f0baf036aa9a" d="M517.18,146.75a1.1,1.1,0,0,1-.4-.13,2.39,2.39,0,0,0-.52-.93,2.61,2.61,0,0,0-2.44-.85c-3-.26-2.23-1.38-5.06-.86l-.72.2c-.86.26-1.72.46-2.7.66.13-1.32.33-2.63.52-4a46.57,46.57,0,0,0,.79-5.46c0-.66.07-1.38.14-2.17s.13-1.71.13-2.5a69.92,69.92,0,0,1,.59-8.1,41,41,0,0,1,.79-7.9,17.07,17.07,0,0,0,.66-4.28c.26-2.63.52-5.26.85-8.09.07-.86.2-1.65.33-2.5a39.37,39.37,0,0,0,.53-5.86,7.49,7.49,0,0,1,.2-2.17,16.73,16.73,0,0,0,.85-4.61,23.43,23.43,0,0,1,.33-2.9,31.19,31.19,0,0,0,.72-5.33l.2-2.37a31.81,31.81,0,0,1,.66-3.22,23,23,0,0,0,.79-4,15.17,15.17,0,0,1,.26-3.42l.86-5.27a36.25,36.25,0,0,0,1-5.86c.13-1.18.26-2.43.52-3.68a23.05,23.05,0,0,0-.92-11.79v-.06a17.48,17.48,0,0,0-.26-5.66A15.38,15.38,0,0,0,512,24.52c-2.11-2.83-5.53-4.74-8.1-5.86-3.82-1.51-8.16-.85-12.44,1.91-.46.26-.92.59-1.45.92a7,7,0,0,1-2.63,1.45,7.76,7.76,0,0,0-3.89,2.63,64.63,64.63,0,0,0-5.85,7.24c-2.31,2.9-4.48,5.93-6.52,8.82-1.32,1.85-2.57,3.69-4,5.4-1.84,2.44-3.55,4.94-5.33,7.5-1,1.45-2,3-3.09,4.48a154.21,154.21,0,0,0-8.3,14.48c-1.31,2.5-2.56,4.94-4,7.37-1.77,3.29-3.35,6.78-4.93,10.14L440,94.29c-.59,1.32-1.25,2.5-1.91,3.75a38.9,38.9,0,0,0-2.76,5.73,55.88,55.88,0,0,1-3.09,7c-1.45,3-3,6.06-4.48,9.09s-3,6.12-4.54,9.21c-2.17,5-4.54,10-6.91,14.81s-4.81,9.87-6.85,15.21c-1.12,0-2.17.13-3.22.19s-1.91.14-3.1.14a23.7,23.7,0,0,1-4.27-.07,30.34,30.34,0,0,0-3.43-.2h-.06a1.22,1.22,0,0,0-.46-.06l-.14-.53-3.62.46.07.66a.5.5,0,0,0-.33.13,3.94,3.94,0,0,0-2.76,1.71,4,4,0,0,0-1.19,2.57,11.15,11.15,0,0,0,2.83,6.84c.86.79,5.93,3.82,8.49,4.28.86.27,1.78.53,2.7.73a11,11,0,0,0-.46,1.84l-.2.53c-1.31,3.55-3,7.57-4.8,11.45-2.3,4.54-4.35,9.15-6.32,13.62l-.2.46a11.22,11.22,0,0,1-2.1,3.89,7.52,7.52,0,0,0-1,1.38c-.2.26-.33.53-.46.66l-.46.72a4.22,4.22,0,0,0,.46,4,5.82,5.82,0,0,0,1.25,1.71,5.37,5.37,0,0,1,.79,1c2,2,4.61,2.56,7.7,1.64,3.82-1,6.19-4,8.36-6.84a27.48,27.48,0,0,0,1.71-3c.46-.85,1-1.77,1.51-2.63a47.5,47.5,0,0,0,5.14-11.12l.13-.2V195a51.14,51.14,0,0,0,2.57-5.06c.59-1.25,1.18-2.51,1.77-3.56l.53-2.17c.53-1.71,1.12-3.69,1.91-5.66a23.41,23.41,0,0,1,1.78-3.42,8.54,8.54,0,0,1,2.56-.46,13.53,13.53,0,0,0,3.56-.6,16.77,16.77,0,0,1,3.49-.52,17.1,17.1,0,0,0,4.14-.66,9.84,9.84,0,0,0,1.25-.13,7.1,7.1,0,0,1,1.32-.13h2.11a46.22,46.22,0,0,1,6.45-.66l3.55-.2c2.11-.33,3.69-1,5.79-1.17s5.18-1,7.15-1.31c.59,0,1.25-.06,2-.13s1.19-.13,1.78-.13a6.78,6.78,0,0,0,3.23,0l.13-.63c-.19,1.32-.26,3.33-.46,4.71-.46,3.23-1.09,7.94-1.29,11.17-.26,2.23-.46,4.34-.66,6.45-.13,1.18-.26,2.37-.39,3.62a2.9,2.9,0,0,0-1.25,2.23,190.88,190.88,0,0,0-1.19,22.25,9.28,9.28,0,0,0,.53,3.49c.66,1.38,1.25,2.76,1.91,4.28.39.92.79,1.84,1.18,2.83a7.72,7.72,0,0,0,6.32,4.61,4.16,4.16,0,0,0,1.45.26,3.29,3.29,0,0,0,3.29-2.63h.06l.6-.6a9.69,9.69,0,0,0,1.18-.13,3.23,3.23,0,0,0,2.7-1.64,1.09,1.09,0,0,0,.46.26l2,1,.73-2.17a6.58,6.58,0,0,0,.13-1,5,5,0,0,0,.66-.46,1.83,1.83,0,0,0,.46-.46c.19-.07.32-.14.46-.2a2.21,2.21,0,0,0,1.18-1.65l.33-.33a11.25,11.25,0,0,0,1.19-1.38,5.65,5.65,0,0,1,1.44-1.38,3.24,3.24,0,0,0,1.58-1.38,2.85,2.85,0,0,0,.33-1.45,7.78,7.78,0,0,0,.59-1.65c1.25-.39,2.44-1.44,2.9-3.68a12,12,0,0,0,.4-3.82v-12.9c.06-1.51.13-2.17.13-2.3v-.07c.39-.72.59-1.38.72-4.28a60.89,60.89,0,0,1,1.38-12.37,53.46,53.46,0,0,0,.86-5.4,80.36,80.36,0,0,1,1.45-8l.19-.86-.06-.19a2.46,2.46,0,0,0,.13-2,1.94,1.94,0,0,1,.13-.46,3.08,3.08,0,0,0,1.71-.79l.53-.66.39-.33c.53-.13,1-.32,1.52-.46a14.25,14.25,0,0,0,3.88-1.51,10,10,0,0,1,2.24-.92c.43-.12.15.1-.13.29a.1.1,0,0,0,0,0l2-1.52c0-.06.26-.26.46-.39a8.18,8.18,0,0,0,1.25-1.25,6.37,6.37,0,0,0,1-2.77,3.37,3.37,0,0,1,.27-1ZM484.54,52.23a59,59,0,0,0-2.44,9.94c-.52,3.68-1.12,7.57-1.45,11.58a129.52,129.52,0,0,1-2.56,13.36,77.22,77.22,0,0,0-1.45,8.69c-.53,5.33-1.19,11.39-2,17.31l-.13,1.19c-.53,4.54-1.06,8.82-1.32,13.29l-1.71,17.58a38.07,38.07,0,0,0-.4,5.53c-2,.19-4.14.39-6.25.52-4.08.33-8.29.66-12.57,1.25-1,.2-2.11.33-3.09.46a67,67,0,0,0-7,1.26,27.81,27.81,0,0,1-5.13.52c-1.58,0-3.49,0-4.87,1.19H432l-2.83.46c1.78-4.08,3.29-7.24,4.87-10.2a28.43,28.43,0,0,0,2.57-6.78,13.55,13.55,0,0,1,2.63-5.93c1.06-1.77,1.91-3.55,2.83-5.33s1.65-3.36,2.64-5a66.07,66.07,0,0,0,3.35-6.39c.6-1.31,1.25-2.63,1.91-4a31.44,31.44,0,0,1,2.7-4.54l.4-.66c1-2.17,2.17-4.34,3.29-6.31.66-1.25,1.31-2.57,2-3.82.92-1.84,1.84-3.62,3-5.46l.66-1.12A36.29,36.29,0,0,0,466.63,82a16.38,16.38,0,0,1,1.26-3c.72-1.25,1.38-2.56,2-3.88a35.45,35.45,0,0,1,2.76-4.94c1-1.51,2-3,2.83-4.47s1.71-2.83,2.44-4a19,19,0,0,0,4-6.12,51.64,51.64,0,0,1,2.69-4.94l.66-1Z"/>
    <path class="c3219883-682c-4957-bcfa-f0baf036aa9a" d="M83.3,166.3a28.85,28.85,0,0,1-4.15,6.84c-.92,1.25-1.84,2.5-2.7,3.89a205.23,205.23,0,0,1-12.77,18.49,116.33,116.33,0,0,1-8.55,10.33l-.53.6a57.45,57.45,0,0,1-7,7.43c-1.52,1.45-3.1,3-4.54,4.55A46,46,0,0,0,35,227a29.11,29.11,0,0,1-9.15,7.17l-.79.53a32.25,32.25,0,0,1-5.46,2.83,3.11,3.11,0,0,1-2.3,1H16.29l-1.71-1.77.07-.27a1.19,1.19,0,0,1-.4-.26l-5.2.2a4.07,4.07,0,0,1-2.3-2.77,4.61,4.61,0,0,0-.66-1.18,8.31,8.31,0,0,1-1.58-3.42l-.2-.86a22.3,22.3,0,0,1-.59-4.81,9.38,9.38,0,0,1,2.57-7,61.85,61.85,0,0,1,7.24-7.24,29.32,29.32,0,0,0,4.34-4.15c.73-.86,1.45-1.65,2.17-2.43,4-4,8-8.23,11.92-12.58,6-6,10.53-13,14.21-18.95a8.49,8.49,0,0,1,.66-2.44,2.88,2.88,0,0,1,2.11-1.64,8.42,8.42,0,0,1,1.32-2,10.46,10.46,0,0,1,1.05-1.78,2.67,2.67,0,0,0,.33-.59,8.58,8.58,0,0,1,2-2.83,81.89,81.89,0,0,0,7.57-16.12,16.65,16.65,0,0,0,1-5.6,3.11,3.11,0,0,0-2.3-2c-1.78.2-3.49.46-5.2.72s-3.69.6-5.4.79c-2.9.33-5,.66-6.72,1.78-2.43,1.25-4.21,2.37-6,3.42a17.85,17.85,0,0,1-12.57,1.78,8.6,8.6,0,0,0-3.16,0c-.73.07-1.52.13-2.31.13A3.3,3.3,0,0,1,17,146a3.44,3.44,0,0,1-2.83-.13H12.28l-.13-1.06-.14.14-4.21.59c-.2-.13-.26-.33-.39-.46L6.29,146l-1.65-2.7C3.13,139.84,2,136.81.89,133.78c-1.51-2.89-.79-5.66-.07-8,.53-1.78,1.12-3.62,1.72-5.47a88.89,88.89,0,0,0,2.69-9.54c2.57-9.08,5.53-18,9.09-27.51,4.74-13.56,9-27,12.57-38.24a76.12,76.12,0,0,0,3-8.1c-3.62-1.84-5.73-5.27-7.24-8.36a36.51,36.51,0,0,0-2.37-4.08,10.29,10.29,0,0,1-1.45-5.07,11.85,11.85,0,0,0-.13-1.51,7.77,7.77,0,0,1,2.5-5.6C24.85,9.71,28.21,9,32,9.84a42.18,42.18,0,0,0,13.43,1.45A100,100,0,0,0,59.67,9.12c7.24-1.12,14-2.17,20.67-3.23l1.9-.26C87.51,4.91,93,4.18,97.71,2.47l5.93-1.18A11.75,11.75,0,0,1,113,2.93a20.16,20.16,0,0,1,2.37,1.19l.66.32c2.63,1.78,4.54,3.82,2.37,7.51a4,4,0,0,1,1.05,1.77l.06.2a8.47,8.47,0,0,1-3.09,8.1c-2.5,1.64-4.54,3-6.32,4.47-2,1.19-2.83,1.91-3.29,3.3a14.26,14.26,0,0,1-8.56,7.1A124.42,124.42,0,0,1,81.92,41.5c-1.32.33-2.9.79-4.41,1.25s-3.3.92-4.81,1.32a83.93,83.93,0,0,1-14.35,1.58h-1a14.62,14.62,0,0,1-2.89,0c-.66,2.24-1.32,4.54-2,6.51-.39,1.12-.85,2.31-1.25,3.43a44.68,44.68,0,0,0-2,6.38c-.79,2.44-1.45,4.61-2.1,6.85S45.78,73.36,45,75.6a94.46,94.46,0,0,0-2.5,10.53,19.66,19.66,0,0,1-1,3.22c-.2.59-.39,1.19-.53,1.71a174.5,174.5,0,0,0-6.77,18.83c1.58-.2,3.15-.4,4.8-.66,3.62-.66,7.44-1.45,11.65-1.84h.07c7.37,0,13.09,1.58,18.23,4.87,6,3.55,9.87,8.69,13.69,13.62,3.22,4.28,5.13,9.28,6.05,15.67l.07,4.41A71.56,71.56,0,0,1,83.3,166.3Z"/>
  </g>
  <path class="c3219883-682c-4957-bcfa-f0baf036aa9a" d="M204.87,199a2.18,2.18,0,0,1-.07.67,21.53,21.53,0,0,0-.34-3.73A10.79,10.79,0,0,1,204.87,199Z"/>
  <path class="c3219883-682c-4957-bcfa-f0baf036aa9a" d="M650.48,12.59c-4-2.72-7.79-2.78-10.74,1.3-5.1,7-10.4,13.77-14.83,21.06-4.25,7-7.69,14.48-11.6,21.62h0l-.33.8c-13.84,24.29-28.33,45.55-42.4,67.47-3.29,5.12-6.91,10.17-10.47,15.32-.48-.13-1.09-.19-1.57-.33-.1-13.8-.55-27.56,4-41.52,4.46-13.53,10.78-37.48,15.61-51,.88-2.59,8.45-18.13,3.68-22.4-1.81-1.64-4.48-2.77-6.55-4.25-5.81-4.23-17.29-2.49-21.81,3.61A143.57,143.57,0,0,0,543.56,39c-13.11,22.38-19.49,55.77-23.28,78.61a67,67,0,0,0,5.4,39.36c1.44,3.2,5.18,6.3,9.23,7.61,12.38,3.86,30.08-3.12,37.65-13,2.66-3.52,5.34-7.22,7.93-11-.2.81-.39,1.62-.58,2.42-5.1,21.44-9,30.13-13.16,51.7l-1.14,5.86c.25-1.16.81-3.85-.24,1.93-2.53,14-8.08,29.26-8.42,43.47-.07,6.86,1.48,13.59,9.6,17.61.8-2,1.83-2.58,2.57-4.37,1.07.56,1.92-.14,4.34,1,0,0-.61,13.38,8-25.61,9.13-41.53,16.7-54.62,18.08-60.16l.24-.57c1.55-3.18,8.39-25.32,12.88-37,3.42-9,6.78-19.58,11.07-28.29,10.34-21,21.21-41.77,33.22-62C663.43,35.51,661.61,20.06,650.48,12.59ZM623.11,39.06c-.29.58-.42.76.19-.68a6.11,6.11,0,0,1,.6-1.08C623.9,37.38,623.41,38.44,623.11,39.06Z"/>
  <polygon class="c3219883-682c-4957-bcfa-f0baf036aa9a" points="743.6 37.26 741.43 37.26 741.43 24.25 744.63 24.25 748.22 34.43 748.26 34.43 751.76 24.25 754.93 24.25 754.93 37.26 752.76 37.26 752.76 27.22 752.72 27.22 749.12 37.26 747.24 37.26 743.63 27.22 743.6 27.22 743.6 37.26"/>
  <path class="c3219883-682c-4957-bcfa-f0baf036aa9a" d="M774.49,116.47a6.53,6.53,0,0,0-7.31-2.91,54.43,54.43,0,0,0-8.49,2.66c-1.85.75-3.84,1.49-5.76,2.11a68.44,68.44,0,0,0-12.14,4.52L738.13,124c-2,.93-4.09,1.86-6.07,2.72-7.62,3.41-15.43,6.94-22.49,10.85a7.44,7.44,0,0,0-1.3.49c-.25.06-.49.19-.93.31a13.6,13.6,0,0,0-2.17-3.22,18.31,18.31,0,0,1-1.36-1.73c-1.24-2-2.54-4-3.84-6.08-2-3.28-4.21-6.69-6.19-10.15-1.61-3.1-3.6-6.14-5.46-9.11-1.48-2.42-3-4.77-4.33-7.19-2.91-5.26-5.58-10.59-7.93-15.92a2.6,2.6,0,0,1-.31-.8l.12-.44a14.32,14.32,0,0,0-.43-5,22.62,22.62,0,0,1-.5-2.36l-.18-.92c-.5-2.54-1-5.21-.13-7.5l.44-1.3A25.25,25.25,0,0,0,676.18,63a8.05,8.05,0,0,1,2.48-4.46c2.36-2,5-5,5.51-9.54a3.74,3.74,0,0,1,.81-1.17,23.31,23.31,0,0,1,4-3.41A37.39,37.39,0,0,1,706,37.86a2.05,2.05,0,0,1,2.6,1.68,7.36,7.36,0,0,1,.06,4.77,68,68,0,0,1-5.82,12.51c-2.35,3.9-4.95,7.87-7.49,11.71-1.68,2.47-3.29,5-4.9,7.43a40,40,0,0,0-5,9.72,7.91,7.91,0,0,0,.31,4.71c.86,3.72,3.28,5.45,5.63,7.19a11.29,11.29,0,0,1,1.3,1c2,1.67,3.85.87,5,.43.87-.37,1.18-.49,1.43-.31l.37.19H700a3.87,3.87,0,0,0,1.49-.43l.37-.25a3,3,0,0,0,.8-1.12c.19-.12.38-.18.56-.31a5.41,5.41,0,0,0,1.3-1,13.13,13.13,0,0,1,1.74-1.3,11.9,11.9,0,0,0,2.16-1.67A185.66,185.66,0,0,0,720,77.88a79.77,79.77,0,0,0,9-15.36,18,18,0,0,0,1.31-9.29,60.82,60.82,0,0,0-1.55-7.62,64.69,64.69,0,0,1-1.43-7.07,5,5,0,0,0-1.61-3.34c-.74-.74-1.48-1.55-2.23-2.35s-1.48-1.68-2.23-2.42a20.24,20.24,0,0,0-7.68-5.08,17.15,17.15,0,0,0-6.94-.93H705.3c-2.17-.93-4.4-.31-6.57.43A16.06,16.06,0,0,1,695,26c-.68.19-1.3.31-2,.5A38.23,38.23,0,0,0,678.23,34c-1.74,1.67-3.53,3.28-5.33,5-3.59,3.22-7.31,6.62-10.72,10.28-5.88,6.63-9.35,12.51-11,18.64-.06.25-.12.56-.19.87-.12.56-.24,1.12-.49,1.3-2.6,1.92-2.85,4.46-3.1,6.69l-.12.75c-1.12,8.54.18,17.46,4,27.38,4,9.91,8.49,20.38,14.87,29.79a168.83,168.83,0,0,1,9.72,19.14,2.87,2.87,0,0,1,.38,1c0,.07-.07.19-.5.5-2.23,1.49-4.34,3.1-6.44,4.65-2.42,1.79-4.77,3.53-7.13,5.08-9,5.88-15.48,13.75-21.12,21.37-2.54,3.53-3.78,7.93-4.65,11.77a28.93,28.93,0,0,0,0,12.63,23.12,23.12,0,0,0,.93,2.3c.38,1,.81,2.1,1.18,3.28A7.76,7.76,0,0,0,642,221a26.71,26.71,0,0,0,4.09,1.86,18.87,18.87,0,0,1,3.59,1.68h.06A23.53,23.53,0,0,0,662.06,228c.5,0,1-.07,1.49-.07a36.7,36.7,0,0,0,5.82-.31,53.28,53.28,0,0,0,9-2.35c1.24-.43,2.48-.87,3.72-1.18a4.84,4.84,0,0,0,1.73-.8,3.76,3.76,0,0,1,.56-.31,136.05,136.05,0,0,0,12.27-9.54c2.41-1.92,5.82-4.59,7.49-8.18a42.63,42.63,0,0,1,3.16-5.2,47.65,47.65,0,0,0,6.38-12.58c.25-1,.44-1.92.62-2.91a42,42,0,0,1,1.18-5.26,7.29,7.29,0,0,0,.31-3.91c-.25-2.23-.25-4.52-.31-6.69a10.8,10.8,0,0,0-.93-6.38c-1.18-2.72,0-4.95,1.3-7.55.31-.56.62-1.12.81-1.49l.31-.19a24.53,24.53,0,0,0,6.31-5.14c.69-.56,1.49-1,2.23-1.55a13.44,13.44,0,0,0,2.42-1.67,22.16,22.16,0,0,1,2.29-1.3,11.12,11.12,0,0,0,3.84-2.66,15.86,15.86,0,0,1,5.58-3.29,17.24,17.24,0,0,1,2.66-1.11c1-.44,2-.81,2.91-1.24a8.8,8.8,0,0,0,2.36-1.67c1.79-2.6,4.46-4,7.68-5.45.74-.31,1.48-.69,2.17-1a41,41,0,0,1,7.8-3.09A7,7,0,0,0,768,122.6a6.27,6.27,0,0,1,2.72-1.23,5,5,0,0,0,3.35-1.62l.31-.37C774.68,118.7,775.3,117.46,774.49,116.47Zm-89,63.81a16.29,16.29,0,0,0-.19,2.6,38.8,38.8,0,0,1-1,7.18l-.06.38a4.3,4.3,0,0,1-.37,1.67c-2.73,4.58-5.89,9.35-10.53,12.82-.5.37-1,.74-1.49,1.18a13.45,13.45,0,0,1-1.12.93c-2.16,1.3-4.64,2.72-7.43,2.72a53.11,53.11,0,0,0-5.7,1.18l-1.24.31a1.92,1.92,0,0,1-2.29-.81,7.65,7.65,0,0,1-2.54-4.21l-1.18-2.41a3.12,3.12,0,0,1-.31-2.67c.56-1.92,1.06-3.78,2.61-5.26a8.42,8.42,0,0,0,1.11-1.8,36.61,36.61,0,0,1,10-11.15,80.74,80.74,0,0,0,8.61-7.43c1.68-1.37,3.29-2.67,5.33-2.92a10.07,10.07,0,0,0,3-1.36,14.7,14.7,0,0,1,1.73-.87c.25-.06.37-.18.5-.18a2.84,2.84,0,0,1,.18.56l.56,1.36C684.79,174.89,685.72,177.49,685.54,180.28Z"/>
  <polygon class="c3219883-682c-4957-bcfa-f0baf036aa9a" points="733.53 26.22 729.42 26.22 729.42 24.25 739.94 24.25 739.94 26.22 735.81 26.22 735.81 37.26 733.53 37.26 733.53 26.22"/>
  <path class="c3219883-682c-4957-bcfa-f0baf036aa9a" d="M565.59,200.68c-.06.34-.09.46,0,0Z"/>
  <path class="c3219883-682c-4957-bcfa-f0baf036aa9a" d="M623.9,37.3c0,.08-.49,1.14-.79,1.76s-.42.76.19-.68A6.11,6.11,0,0,1,623.9,37.3Z"/>
  <path class="c3219883-682c-4957-bcfa-f0baf036aa9a" d="M204.81,199.68v1.07a1.51,1.51,0,0,1-.07-.37v0A3.53,3.53,0,0,0,204.81,199.68Z"/>
  <path class="c3219883-682c-4957-bcfa-f0baf036aa9a" d="M203.19,209.93l1.61-5.72A19.57,19.57,0,0,1,203.19,209.93Z"/>
  <path class="c3219883-682c-4957-bcfa-f0baf036aa9a" d="M204.81,199.68v1.07a1.51,1.51,0,0,1-.07-.37v0A3.53,3.53,0,0,0,204.81,199.68Z"/>
  <path class="c3219883-682c-4957-bcfa-f0baf036aa9a" d="M204.87,199a2.18,2.18,0,0,1-.07.67,21.53,21.53,0,0,0-.34-3.73A10.79,10.79,0,0,1,204.87,199Z"/>
</svg>
