<?xml version="1.0" encoding="utf-8"?>
<!-- Generator: Adobe Illustrator 18.1.1, SVG Export Plug-In . SVG Version: 6.00 Build 0)  -->
<!DOCTYPE svg PUBLIC "-//W3C//DTD SVG 1.1//EN" "http://www.w3.org/Graphics/SVG/1.1/DTD/svg11.dtd">
<svg xmlns="http://www.w3.org/2000/svg" xmlns:xlink="http://www.w3.org/1999/xlink" version="1.1" id="AW" x="0px" y="0px" viewBox="0 0 594.8 88.2" xml:space="preserve">
<g>
	<g>
		<path fill="#0076C0" d="M47.5,16.8l0.6-0.9c0,0,0.3-0.4,0.2-0.9c0.2,0,0.5-0.2,0.7-0.5l0.8-1.3c0,0,0.6-1-0.3-1.6l0,0    c0,0-0.9-0.6-1.6,0.3l-0.8,1.3c0,0-0.3,0.4-0.2,0.9c-0.2,0-0.5,0.2-0.7,0.5l-0.6,0.9c0,0-0.6,1,0.3,1.6l0,0    C45.9,17.1,46.9,17.7,47.5,16.8z"/>
		<path fill="#0076C0" d="M21.3,52l-0.6,0.9c0,0-0.3,0.4-0.2,0.9c-0.2,0-0.5,0.2-0.7,0.5l-0.8,1.3c0,0-0.6,1,0.3,1.6l0,0    c0,0,0.9,0.6,1.6-0.3l0.8-1.3c0,0,0.3-0.4,0.2-0.9c0.2,0,0.5-0.2,0.7-0.5l0.6-0.9c0,0,0.6-1-0.3-1.6l0,0    C22.8,51.6,21.9,51,21.3,52z"/>
		<path fill="#0076C0" d="M55.1,27l1-0.4c0,0,0.5-0.2,0.7-0.6c0.2,0.1,0.5,0.1,0.9,0l1.4-0.6c0,0,1.1-0.4,0.6-1.5l0,0    c0,0-0.4-1-1.5-0.6l-1.4,0.6c0,0-0.5,0.2-0.7,0.6c-0.2-0.1-0.5-0.1-0.9,0l-1,0.4c0,0-1.1,0.4-0.6,1.5l0,0    C53.6,26.4,54,27.5,55.1,27z"/>
		<path fill="#0076C0" d="M13.7,41.7l-1,0.4c0,0-0.5,0.2-0.6,0.6c-0.2-0.1-0.5-0.1-0.9,0l-1.4,0.6c0,0-1.1,0.4-0.6,1.5l0,0    c0,0,0.4,1,1.5,0.6l1.4-0.6c0,0,0.5-0.2,0.7-0.6c0.2,0.1,0.5,0.1,0.9,0l1-0.4c0,0,1.1-0.4,0.6-1.5l0,0    C15.2,42.3,14.8,41.3,13.7,41.7z"/>
		<path fill="#0076C0" d="M55.7,39.8l1,0.2c0,0,0.5,0.1,0.9-0.1c0.1,0.2,0.4,0.4,0.8,0.5l1.5,0.3c0,0,1.1,0.2,1.4-0.9l0,0    c0,0,0.2-1.1-0.9-1.3l-1.5-0.3c0,0-0.5-0.1-0.9,0.2c-0.1-0.2-0.4-0.4-0.8-0.5l-1.1-0.2c0,0-1.1-0.2-1.3,0.9l0,0    C54.7,38.4,54.5,39.5,55.7,39.8z"/>
		<path fill="#0076C0" d="M13.1,29l-1.1-0.2c0,0-0.5-0.1-0.9,0.2c-0.1-0.2-0.4-0.4-0.8-0.5l-1.5-0.3c0,0-1.1-0.2-1.4,0.9l0,0    c0,0-0.2,1.1,0.9,1.3l1.5,0.3c0,0,0.5,0.1,0.9-0.1c0.1,0.2,0.4,0.4,0.8,0.5l1.1,0.2c0,0,1.1,0.2,1.4-0.9l0,0    C14,30.3,14.2,29.2,13.1,29z"/>
		<path fill="#0076C0" d="M19.7,18.1l-0.8-0.8c0,0-0.4-0.3-0.8-0.4c0-0.2-0.1-0.5-0.4-0.8l-1.1-1.1c0,0-0.8-0.8-1.6,0l0,0    c0,0-0.8,0.8,0,1.6l1.1,1.1c0,0,0.3,0.4,0.8,0.4c0,0.2,0.1,0.5,0.4,0.8l0.8,0.8c0,0,0.8,0.8,1.6,0l0,0    C19.7,19.7,20.5,18.9,19.7,18.1z"/>
		<path fill="#0076C0" d="M49.1,50.7l0.8,0.8c0,0,0.4,0.3,0.8,0.4c0,0.2,0.1,0.5,0.4,0.8l1.1,1.1c0,0,0.8,0.8,1.6,0l0,0    c0,0,0.8-0.8,0-1.6L52.6,51c0,0-0.4-0.3-0.8-0.4c0-0.3-0.1-0.5-0.4-0.8l-0.8-0.8c0,0-0.8-0.8-1.6,0l0,0    C49.1,49.1,48.3,49.9,49.1,50.7z"/>
		<path fill="#0076C0" d="M35.5,12.5l0-1.1c0,0,0-0.5-0.3-0.8c0.2-0.2,0.3-0.4,0.3-0.8V8.2c0,0,0-1.2-1.1-1.2l0,0c0,0-1.1,0-1.1,1.2    l0,1.5c0,0,0,0.5,0.3,0.8c-0.2,0.2-0.3,0.4-0.3,0.8v1.1c0,0,0,1.2,1.1,1.2h0C34.4,13.6,35.5,13.6,35.5,12.5z"/>
		<path fill="#0076C0" d="M33.3,56.3v1.1c0,0,0,0.5,0.3,0.8c-0.2,0.2-0.3,0.4-0.3,0.8l0,1.5c0,0,0,1.2,1.1,1.2h0c0,0,1.1,0,1.1-1.2    v-1.5c0,0,0-0.5-0.3-0.8c0.2-0.2,0.3-0.4,0.3-0.8v-1.1c0,0,0-1.2-1.1-1.2h0C34.4,55.1,33.3,55.1,33.3,56.3z"/>
		<path fill="#0076C0" d="M31.2,12.7l-0.2-1c0,0-0.1-0.5-0.5-0.8c0.1-0.2,0.2-0.5,0.1-0.9l-0.3-1.5c0,0-0.2-1.1-1.3-0.9l0,0    c0,0-1.1,0.2-0.9,1.4l0.3,1.5c0,0,0.1,0.5,0.5,0.8c-0.1,0.2-0.2,0.5-0.1,0.9l0.2,1.1c0,0,0.2,1.1,1.3,0.9l0,0    C30.3,14,31.4,13.8,31.2,12.7z"/>
		<path fill="#0076C0" d="M37.6,56.1l0.2,1.1c0,0,0.1,0.5,0.5,0.8c-0.1,0.2-0.2,0.5-0.1,0.9l0.3,1.5c0,0,0.2,1.1,1.3,0.9h0    c0,0,1.1-0.2,0.9-1.4l-0.3-1.5c0,0-0.1-0.5-0.5-0.8c0.1-0.2,0.2-0.5,0.1-0.9l-0.2-1.1c0,0-0.2-1.1-1.3-0.9h0    C38.4,54.7,37.3,55,37.6,56.1z"/>
		<path fill="#0076C0" d="M54.2,43.8l1,0.4c0,0,0.5,0.2,0.9,0c0.1,0.2,0.3,0.5,0.6,0.6l1.4,0.6c0,0,1.1,0.4,1.5-0.6l0,0    c0,0,0.4-1-0.6-1.5l-1.4-0.6c0,0-0.5-0.2-0.9,0c-0.1-0.2-0.3-0.5-0.7-0.6l-1-0.4c0,0-1.1-0.4-1.5,0.6l0,0    C53.6,42.3,53.1,43.4,54.2,43.8z"/>
		<path fill="#0076C0" d="M14.6,25l-1-0.4c0,0-0.5-0.2-0.9,0c-0.1-0.2-0.3-0.5-0.7-0.6l-1.4-0.6c0,0-1.1-0.4-1.5,0.6l0,0    c0,0-0.4,1,0.6,1.5l1.4,0.6c0,0,0.5,0.2,0.9,0c0.1,0.2,0.3,0.5,0.6,0.6l1,0.4c0,0,1.1,0.4,1.5-0.6l0,0    C15.2,26.4,15.6,25.4,14.6,25z"/>
		<path fill="#0076C0" d="M39.8,13.1l0.2-1.1c0,0,0.1-0.5-0.1-0.9c0.2-0.1,0.4-0.4,0.5-0.8l0.3-1.5c0,0,0.2-1.1-0.9-1.4l0,0    c0,0-1.1-0.2-1.3,0.9L38.1,10c0,0-0.1,0.5,0.1,0.9c-0.2,0.1-0.4,0.4-0.5,0.8l-0.2,1c0,0-0.2,1.1,0.9,1.4l0,0    C38.4,14,39.5,14.2,39.8,13.1z"/>
		<path fill="#0076C0" d="M29,55.7l-0.2,1.1c0,0-0.1,0.5,0.1,0.9c-0.2,0.1-0.4,0.4-0.5,0.8l-0.3,1.5c0,0-0.2,1.1,0.9,1.4h0    c0,0,1.1,0.2,1.3-0.9l0.3-1.5c0,0,0.1-0.5-0.1-0.9c0.2-0.1,0.4-0.4,0.5-0.8l0.2-1.1c0,0,0.2-1.1-0.9-1.4h0    C30.3,54.7,29.2,54.5,29,55.7z"/>
		<path fill="#0076C0" d="M45.6,53.2l0.6,0.9c0,0,0.3,0.4,0.7,0.5c-0.1,0.2,0,0.5,0.2,0.9l0.8,1.3c0,0,0.6,1,1.6,0.3l0,0    c0,0,0.9-0.6,0.3-1.6L49,54.3c0,0-0.3-0.4-0.7-0.5c0-0.2,0-0.5-0.2-0.9L47.5,52c0,0-0.6-1-1.6-0.3l0,0    C45.9,51.7,45,52.3,45.6,53.2z"/>
		<path fill="#0076C0" d="M23.2,15.5l-0.6-0.9c0,0-0.3-0.4-0.7-0.5c0.1-0.2,0-0.5-0.2-0.9L20.8,12c0,0-0.6-1-1.6-0.3l0,0    c0,0-0.9,0.6-0.3,1.6l0.8,1.3c0,0,0.3,0.4,0.7,0.5c-0.1,0.2,0,0.5,0.2,0.9l0.6,0.9c0,0,0.6,1,1.6,0.3l0,0    C22.9,17.1,23.8,16.5,23.2,15.5z"/>
		<path fill="#0076C0" d="M50.7,19.7l0.8-0.8c0,0,0.3-0.3,0.4-0.8c0.2,0,0.5-0.1,0.8-0.4l1.1-1.1c0,0,0.8-0.8,0-1.6l0,0    c0,0-0.8-0.8-1.6,0L51,16.1c0,0-0.3,0.3-0.4,0.8c-0.3,0-0.5,0.1-0.8,0.4l-0.8,0.8c0,0-0.8,0.8,0,1.6l0,0    C49.1,19.7,49.9,20.5,50.7,19.7z"/>
		<path fill="#0076C0" d="M18.1,49.1l-0.8,0.8c0,0-0.4,0.4-0.4,0.8c-0.2,0-0.5,0.1-0.8,0.4l-1.1,1.1c0,0-0.8,0.8,0,1.6l0,0    c0,0,0.8,0.8,1.6,0l1.1-1.1c0,0,0.4-0.4,0.4-0.8c0.2,0,0.5-0.1,0.8-0.4l0.8-0.8c0,0,0.8-0.8,0-1.6l0,0    C19.7,49.1,18.9,48.3,18.1,49.1z"/>
		<path fill="#0076C0" d="M56.1,31.2l1.1-0.2c0,0,0.5-0.1,0.8-0.5c0.2,0.1,0.5,0.2,0.9,0.1l1.5-0.3c0,0,1.1-0.2,0.9-1.3l0,0    c0,0-0.2-1.1-1.4-0.9l-1.5,0.3c0,0-0.5,0.1-0.8,0.5c-0.2-0.1-0.5-0.2-0.9-0.2l-1,0.2c0,0-1.1,0.2-0.9,1.3l0,0    C54.8,30.3,55,31.4,56.1,31.2z"/>
		<path fill="#0076C0" d="M12.7,37.6l-1.1,0.2c0,0-0.5,0.1-0.8,0.5c-0.2-0.1-0.5-0.2-0.9-0.2l-1.5,0.3c0,0-1.1,0.2-0.9,1.3v0    c0,0,0.2,1.1,1.4,0.9l1.5-0.3c0,0,0.5-0.1,0.8-0.5c0.2,0.1,0.5,0.2,0.9,0.2l1.1-0.2c0,0,1.1-0.2,0.9-1.3l0,0    C14,38.4,13.8,37.3,12.7,37.6z"/>
		<path fill="#0076C0" d="M52,47.5l0.9,0.6c0,0,0.4,0.3,0.9,0.2c0,0.2,0.2,0.5,0.5,0.7l1.3,0.8c0,0,1,0.6,1.6-0.3l0,0    c0,0,0.6-0.9-0.3-1.6l-1.3-0.9c0,0-0.4-0.3-0.9-0.2c0-0.2-0.2-0.5-0.5-0.7l-0.9-0.6c0,0-1-0.6-1.6,0.3l0,0    C51.6,45.9,51,46.9,52,47.5z"/>
		<path fill="#0076C0" d="M16.8,21.3l-0.9-0.6c0,0-0.4-0.3-0.9-0.2c0-0.2-0.2-0.5-0.5-0.7l-1.3-0.8c0,0-1-0.6-1.6,0.3l0,0    c0,0-0.6,0.9,0.3,1.6l1.3,0.8c0,0,0.4,0.3,0.9,0.2c0,0.2,0.2,0.5,0.5,0.7l0.9,0.6c0,0,1,0.6,1.6-0.3l0,0    C17.1,22.8,17.8,21.9,16.8,21.3z"/>
		<path fill="#0076C0" d="M43.8,14.6l0.4-1c0,0,0.2-0.5,0-0.9c0.2-0.1,0.5-0.3,0.6-0.7l0.6-1.4c0,0,0.4-1.1-0.6-1.5l0,0    c0,0-1-0.4-1.5,0.6l-0.6,1.4c0,0-0.2,0.5,0,0.9c-0.2,0.1-0.5,0.3-0.6,0.6l-0.4,1c0,0-0.4,1.1,0.6,1.5l0,0    C42.3,15.2,43.4,15.6,43.8,14.6z"/>
		<path fill="#0076C0" d="M25,54.2l-0.4,1c0,0-0.2,0.5,0,0.9c-0.2,0.1-0.5,0.3-0.6,0.7l-0.6,1.4c0,0-0.4,1.1,0.6,1.5l0,0    c0,0,1,0.4,1.5-0.6l0.6-1.4c0,0,0.2-0.5,0-0.9c0.2-0.1,0.5-0.3,0.6-0.7l0.4-1c0,0,0.4-1.1-0.6-1.5l0,0    C26.4,53.6,25.4,53.1,25,54.2z"/>
		<path fill="#0076C0" d="M41.7,55.1l0.4,1c0,0,0.2,0.5,0.6,0.7c-0.1,0.2-0.1,0.5,0,0.9l0.6,1.4c0,0,0.4,1.1,1.5,0.6l0,0    c0,0,1-0.4,0.6-1.5l-0.6-1.4c0,0-0.2-0.5-0.6-0.7c0.1-0.2,0.1-0.5,0-0.9l-0.4-1c0,0-0.4-1.1-1.5-0.6l0,0    C42.3,53.6,41.3,54,41.7,55.1z"/>
		<path fill="#0076C0" d="M27,13.7l-0.4-1c0,0-0.2-0.5-0.6-0.6c0.1-0.2,0.1-0.5,0-0.9l-0.6-1.4c0,0-0.4-1.1-1.5-0.6l0,0    c0,0-1,0.4-0.6,1.5l0.6,1.4c0,0,0.2,0.5,0.6,0.7c-0.1,0.2-0.1,0.5,0,0.9l0.4,1c0,0,0.4,1.1,1.5,0.6l0,0    C26.4,15.2,27.5,14.8,27,13.7z"/>
		<path fill="#0076C0" d="M53.2,23.2l0.9-0.6c0,0,0.4-0.3,0.5-0.7c0.2,0.1,0.5,0,0.9-0.2l1.3-0.8c0,0,1-0.6,0.3-1.6l0,0    c0,0-0.6-0.9-1.6-0.3l-1.3,0.8c0,0-0.4,0.3-0.5,0.7c-0.2-0.1-0.5,0-0.9,0.2L52,21.3c0,0-1,0.6-0.3,1.6l0,0    C51.7,22.9,52.3,23.8,53.2,23.2z"/>
		<path fill="#0076C0" d="M15.5,45.6l-0.9,0.6c0,0-0.4,0.3-0.5,0.7c-0.2-0.1-0.5,0-0.9,0.2L12,48c0,0-1,0.6-0.3,1.6l0,0    c0,0,0.6,0.9,1.6,0.3l1.3-0.8c0,0,0.4-0.3,0.5-0.7c0.2,0,0.5,0,0.9-0.2l0.9-0.6c0,0,1-0.6,0.3-1.6l0,0    C17.1,45.9,16.5,45,15.5,45.6z"/>
		<path fill="#0076C0" d="M56.3,35.5h1.1c0,0,0.5,0,0.8-0.3c0.2,0.2,0.4,0.3,0.8,0.3h1.5c0,0,1.2,0,1.2-1.1l0,0c0,0,0-1.1-1.2-1.1    l-1.5,0c0,0-0.5,0-0.8,0.3c-0.2-0.2-0.4-0.3-0.8-0.3h-1.1c0,0-1.2,0-1.2,1.1v0C55.2,34.4,55.2,35.5,56.3,35.5z"/>
		<path fill="#0076C0" d="M12.5,33.3l-1.1,0c0,0-0.5,0-0.8,0.3c-0.2-0.2-0.4-0.3-0.8-0.3l-1.5,0c0,0-1.2,0-1.2,1.1v0    c0,0,0,1.1,1.2,1.1h1.5c0,0,0.5,0,0.8-0.3c0.2,0.2,0.4,0.3,0.8,0.3h1.1c0,0,1.2,0,1.2-1.1l0,0C13.6,34.4,13.6,33.3,12.5,33.3z"/>
	</g>
	<g>
		<path fill="#0076C0" d="M45.4,19.9l0.1-0.2c0,0,0.5-0.8-0.2-1.4l-0.3-0.2c0,0-0.8-0.5-1.4,0.3l-0.1,0.2c0,0-0.6,0.8,0.2,1.4    l0.3,0.2C44.1,20.2,44.9,20.7,45.4,19.9z"/>
		<path fill="#0076C0" d="M23.3,48.9l-0.1,0.2c0,0-0.5,0.8,0.2,1.4l0.3,0.2c0,0,0.8,0.5,1.3-0.3l0.2-0.2c0,0,0.5-0.8-0.3-1.4    l-0.3-0.2C24.7,48.6,23.9,48.1,23.3,48.9z"/>
		<path fill="#0076C0" d="M51.6,28.5l0.2-0.1c0,0,0.9-0.4,0.6-1.3l-0.1-0.3c0,0-0.4-0.9-1.3-0.5l-0.2,0.1c0,0-0.9,0.4-0.5,1.3    l0.1,0.3C50.3,28,50.7,28.9,51.6,28.5z"/>
		<path fill="#0076C0" d="M17.1,40.3l-0.2,0.1c0,0-0.9,0.4-0.5,1.3l0.1,0.3c0,0,0.4,0.9,1.3,0.5l0.2-0.1c0,0,0.9-0.4,0.5-1.3    l-0.1-0.3C18.4,40.8,18.1,39.9,17.1,40.3z"/>
		<path fill="#0076C0" d="M52,39l0.3,0.1c0,0,1,0.2,1.2-0.8l0.1-0.3c0,0,0.2-0.9-0.8-1.1l-0.3,0c0,0-1-0.2-1.2,0.7l-0.1,0.3    C51.2,37.9,51,38.9,52,39z"/>
		<path fill="#0076C0" d="M16.8,29.7l-0.3-0.1c0,0-1-0.2-1.2,0.8l-0.1,0.3c0,0-0.2,1,0.8,1.1l0.3,0c0,0,1,0.2,1.2-0.8l0.1-0.3    C17.5,30.9,17.7,29.9,16.8,29.7z"/>
		<path fill="#0076C0" d="M22.3,20.7l-0.2-0.2c0,0-0.7-0.7-1.4,0l-0.2,0.2c0,0-0.7,0.7,0,1.4l0.2,0.2c0,0,0.7,0.7,1.4,0l0.2-0.2    C22.3,22.1,23,21.4,22.3,20.7z"/>
		<path fill="#0076C0" d="M46.5,48.1l0.2,0.2c0,0,0.7,0.7,1.4,0l0.2-0.2c0,0,0.7-0.7,0-1.4l-0.2-0.2c0,0-0.7-0.7-1.4,0l-0.2,0.2    C46.4,46.7,45.8,47.4,46.5,48.1z"/>
		<path fill="#0076C0" d="M35.5,16.2l0-0.3c0,0,0-1-1-1h-0.3c0,0-1,0-1,1v0.3c0,0,0,1,1,1h0.3C34.6,17.2,35.5,17.2,35.5,16.2z"/>
		<path fill="#0076C0" d="M33.3,52.6v0.3c0,0,0,1,1,1h0.3c0,0,1,0,1-1v-0.3c0,0,0-1-1-1h-0.3C34.2,51.6,33.3,51.6,33.3,52.6z"/>
		<path fill="#0076C0" d="M32,16.3l-0.1-0.3c0,0-0.2-1-1.1-0.8l-0.3,0.1c0,0-0.9,0.2-0.7,1.2l0,0.3c0,0,0.2,1,1.1,0.8l0.3-0.1    C31.2,17.5,32.1,17.3,32,16.3z"/>
		<path fill="#0076C0" d="M36.8,52.5l0.1,0.3c0,0,0.2,1,1.1,0.8l0.3-0.1c0,0,0.9-0.2,0.7-1.2l0-0.3c0,0-0.2-1-1.1-0.8l-0.3,0.1    C37.6,51.3,36.6,51.5,36.8,52.5z"/>
		<path fill="#0076C0" d="M50.8,42.4l0.2,0.1c0,0,0.9,0.4,1.3-0.5l0.1-0.3c0,0,0.4-0.9-0.6-1.3l-0.2-0.1c0,0-0.9-0.4-1.3,0.5    l-0.1,0.3C50.2,41.1,49.8,42,50.8,42.4z"/>
		<path fill="#0076C0" d="M18,26.4l-0.2-0.1c0,0-0.9-0.4-1.3,0.5l-0.1,0.3c0,0-0.4,0.9,0.5,1.3l0.2,0.1c0,0,0.9,0.4,1.3-0.5l0.1-0.3    C18.6,27.6,18.9,26.8,18,26.4z"/>
		<path fill="#0076C0" d="M39.1,16.8l0.1-0.3c0,0,0.2-1-0.8-1.2L38,15.3c0,0-0.9-0.2-1.1,0.8l-0.1,0.3c0,0-0.2,1,0.8,1.2l0.3,0.1    C37.9,17.5,38.9,17.7,39.1,16.8z"/>
		<path fill="#0076C0" d="M29.7,52l0,0.3c0,0-0.2,1,0.7,1.2l0.3,0.1c0,0,0.9,0.2,1.1-0.8l0.1-0.3c0,0,0.2-1-0.8-1.2l-0.3-0.1    C30.9,51.2,29.9,51,29.7,52z"/>
		<path fill="#0076C0" d="M43.6,50.1l0.1,0.2c0,0,0.5,0.8,1.3,0.3l0.3-0.2c0,0,0.8-0.5,0.2-1.4l-0.1-0.2c0,0-0.5-0.8-1.3-0.3    l-0.3,0.2C43.8,48.8,43,49.3,43.6,50.1z"/>
		<path fill="#0076C0" d="M25.2,18.6l-0.2-0.2c0,0-0.5-0.8-1.3-0.3l-0.3,0.2c0,0-0.8,0.5-0.3,1.4l0.1,0.2c0,0,0.6,0.8,1.3,0.3L25,20    C25,20,25.8,19.4,25.2,18.6z"/>
		<path fill="#0076C0" d="M48.1,22.3l0.2-0.2c0,0,0.7-0.7,0-1.4L48,20.5c0,0-0.7-0.7-1.4,0l-0.2,0.2c0,0-0.7,0.7,0,1.4l0.2,0.2    C46.7,22.3,47.4,23,48.1,22.3z"/>
		<path fill="#0076C0" d="M20.7,46.5l-0.2,0.2c0,0-0.7,0.7,0,1.4l0.2,0.2c0,0,0.7,0.7,1.4,0l0.2-0.2c0,0,0.7-0.7,0-1.4l-0.2-0.2    C22.1,46.4,21.4,45.8,20.7,46.5z"/>
		<path fill="#0076C0" d="M52.5,31.9l0.3-0.1c0,0,1-0.2,0.8-1.1l-0.1-0.3c0,0-0.2-0.9-1.2-0.8L52,29.7c0,0-1,0.2-0.8,1.1l0.1,0.3    C51.3,31.2,51.5,32.1,52.5,31.9z"/>
		<path fill="#0076C0" d="M16.3,36.8l-0.3,0c0,0-1,0.2-0.8,1.1l0.1,0.3c0,0,0.2,0.9,1.2,0.8l0.3-0.1c0,0,1-0.2,0.8-1.1l-0.1-0.3    C17.5,37.6,17.3,36.6,16.3,36.8z"/>
		<path fill="#0076C0" d="M48.9,45.4l0.2,0.1c0,0,0.8,0.6,1.4-0.2l0.2-0.3c0,0,0.5-0.8-0.3-1.3l-0.2-0.1c0,0-0.8-0.5-1.4,0.3    l-0.2,0.3C48.6,44.1,48.1,44.9,48.9,45.4z"/>
		<path fill="#0076C0" d="M19.9,23.3l-0.2-0.1c0,0-0.8-0.6-1.4,0.3l-0.2,0.3c0,0-0.5,0.8,0.3,1.4l0.2,0.1c0,0,0.8,0.6,1.4-0.3    l0.2-0.3C20.2,24.7,20.7,23.9,19.9,23.3z"/>
		<path fill="#0076C0" d="M42.4,18l0.1-0.2c0,0,0.4-0.9-0.5-1.3l-0.3-0.1c0,0-0.9-0.4-1.3,0.5l-0.1,0.2c0,0-0.4,0.9,0.5,1.3l0.3,0.1    C41.1,18.6,42,18.9,42.4,18z"/>
		<path fill="#0076C0" d="M26.4,50.8L26.3,51c0,0-0.4,0.9,0.5,1.3l0.3,0.1c0,0,0.9,0.4,1.3-0.6l0.1-0.2c0,0,0.4-0.9-0.5-1.3    l-0.3-0.1C27.6,50.2,26.8,49.9,26.4,50.8z"/>
		<path fill="#0076C0" d="M40.3,51.6l0.1,0.2c0,0,0.4,0.9,1.3,0.5l0.3-0.1c0,0,0.9-0.4,0.5-1.3l-0.1-0.2c0,0-0.4-0.9-1.3-0.6    l-0.3,0.1C40.8,50.4,39.9,50.7,40.3,51.6z"/>
		<path fill="#0076C0" d="M28.5,17.1l-0.1-0.2c0,0-0.4-0.9-1.3-0.5l-0.3,0.1c0,0-0.9,0.4-0.5,1.3l0.1,0.2c0,0,0.4,0.9,1.3,0.6    l0.3-0.1C28,18.4,28.9,18.1,28.5,17.1z"/>
		<path fill="#0076C0" d="M50.1,25.2l0.2-0.1c0,0,0.8-0.6,0.3-1.4l-0.2-0.3c0,0-0.5-0.8-1.4-0.2l-0.2,0.1c0,0-0.8,0.6-0.3,1.3    l0.2,0.3C48.8,25,49.3,25.8,50.1,25.2z"/>
		<path fill="#0076C0" d="M18.6,43.6l-0.2,0.1c0,0-0.8,0.5-0.3,1.3l0.2,0.3c0,0,0.5,0.8,1.4,0.2l0.2-0.1c0,0,0.8-0.5,0.3-1.3    L20,43.8C20,43.8,19.5,43,18.6,43.6z"/>
		<path fill="#0076C0" d="M52.6,35.5h0.3c0,0,1,0,1-1v-0.3c0,0,0-1-1-1l-0.3,0c0,0-1,0-1,1v0.3C51.6,34.6,51.6,35.5,52.6,35.5z"/>
		<path fill="#0076C0" d="M16.2,33.3h-0.3c0,0-1,0-1,1v0.3c0,0,0,1,1,1h0.3c0,0,1,0,1-1v-0.3C17.2,34.2,17.2,33.3,16.2,33.3z"/>
	</g>
	<g>
		<g>
			<g>
				<g>
					<path fill="#0076C0" d="M53.2,8.3l0.6-0.9c0,0,0.6-1-0.3-1.6l0,0c0,0-0.9-0.6-1.6,0.3L51.3,7c0,0-0.6,1,0.3,1.6l0,0       C51.6,8.6,52.6,9.2,53.2,8.3z"/>
					<path fill="#0076C0" d="M15.6,60.5L15,61.4c0,0-0.6,1,0.3,1.6l0,0c0,0,0.9,0.6,1.6-0.3l0.6-0.9c0,0,0.6-1-0.3-1.6l0,0       C17.2,60.2,16.2,59.5,15.6,60.5z"/>
				</g>
				<g>
					<path fill="#0076C0" d="M64.5,23.1l1-0.4c0,0,1.1-0.4,0.6-1.5l0,0c0,0-0.4-1-1.5-0.6l-1,0.4c0,0-1.1,0.4-0.6,1.5l0,0       C63,22.5,63.5,23.6,64.5,23.1z"/>
					<path fill="#0076C0" d="M4.2,45.6l-1,0.4c0,0-1.1,0.4-0.6,1.5l0,0c0,0,0.4,1,1.5,0.6l1-0.4c0,0,1.1-0.4,0.6-1.5l0,0       C5.7,46.2,5.3,45.2,4.2,45.6z"/>
				</g>
				<g>
					<path fill="#0076C0" d="M65.7,41.8l1.1,0.2c0,0,1.1,0.2,1.4-0.9l0,0c0,0,0.2-1.1-0.9-1.3l-1.1-0.2c0,0-1.1-0.2-1.4,0.9l0,0       C64.8,40.4,64.6,41.5,65.7,41.8z"/>
					<path fill="#0076C0" d="M3.1,27l-1-0.2c0,0-1.1-0.2-1.4,0.9l0,0c0,0-0.2,1.1,0.9,1.3l1,0.2c0,0,1.1,0.2,1.4-0.9l0,0       C4,28.3,4.2,27.2,3.1,27z"/>
				</g>
				<g>
					<path fill="#0076C0" d="M12.4,10.9l-0.8-0.8c0,0-0.8-0.8-1.6,0l0,0c0,0-0.8,0.8,0,1.6l0.8,0.8c0,0,0.8,0.8,1.6,0l0,0       C12.5,12.5,13.3,11.7,12.4,10.9z"/>
					<path fill="#0076C0" d="M56.3,57.9l0.8,0.8c0,0,0.8,0.8,1.6,0l0,0c0,0,0.8-0.8,0-1.6l-0.8-0.8c0,0-0.8-0.8-1.6,0l0,0       C56.3,56.3,55.5,57.1,56.3,57.9z"/>
				</g>
				<g>
					<path fill="#0076C0" d="M35.5,2.2l0-1.1c0,0,0-1.2-1.1-1.2h0c0,0-1.1,0-1.1,1.2v1.1c0,0,0,1.2,1.1,1.2h0       C34.4,3.4,35.5,3.4,35.5,2.2z"/>
					<path fill="#0076C0" d="M33.3,66.5v1.1c0,0,0,1.2,1.1,1.2h0c0,0,1.1,0,1.1-1.2v-1.1c0,0,0-1.2-1.1-1.2h0       C34.4,65.4,33.3,65.4,33.3,66.5z"/>
				</g>
			</g>
			<g>
				<g>
					<path fill="#0076C0" d="M29.2,2.6L29,1.6c0,0-0.2-1.1-1.3-0.9l0,0c0,0-1.1,0.2-0.9,1.4L27,3.1c0,0,0.2,1.1,1.3,0.9l0,0       C28.3,4,29.4,3.8,29.2,2.6z"/>
					<path fill="#0076C0" d="M39.5,66.1l0.2,1.1c0,0,0.2,1.1,1.3,0.9l0,0c0,0,1.1-0.2,0.9-1.4l-0.2-1.1c0,0-0.2-1.1-1.3-0.9l0,0       C40.4,64.8,39.3,65,39.5,66.1z"/>
				</g>
				<g>
					<path fill="#0076C0" d="M63.7,47.7l1,0.4c0,0,1.1,0.4,1.5-0.6l0,0c0,0,0.4-1-0.6-1.5l-1-0.4c0,0-1.1-0.4-1.5,0.6l0,0       C63,46.3,62.6,47.3,63.7,47.7z"/>
					<path fill="#0076C0" d="M5.1,21l-1-0.4c0,0-1.1-0.4-1.5,0.6l0,0c0,0-0.4,1,0.6,1.5l1,0.4c0,0,1.1,0.4,1.5-0.6l0,0       C5.7,22.5,6.2,21.5,5.1,21z"/>
				</g>
				<g>
					<path fill="#0076C0" d="M41.8,3.1L42,2c0,0,0.2-1.1-0.9-1.4l0,0c0,0-1.1-0.2-1.3,0.9l-0.2,1.1c0,0-0.2,1.1,0.9,1.4l0,0       C40.4,4,41.5,4.2,41.8,3.1z"/>
					<path fill="#0076C0" d="M27,65.7l-0.2,1.1c0,0-0.2,1.1,0.9,1.4l0,0c0,0,1.1,0.2,1.3-0.9l0.2-1.1c0,0,0.2-1.1-0.9-1.4l0,0       C28.3,64.8,27.2,64.6,27,65.7z"/>
				</g>
				<g>
					<path fill="#0076C0" d="M51.3,61.8l0.6,0.9c0,0,0.6,1,1.6,0.3l0,0c0,0,0.9-0.6,0.3-1.6l-0.6-0.9c0,0-0.6-1-1.6-0.3l0,0       C51.6,60.2,50.7,60.8,51.3,61.8z"/>
					<path fill="#0076C0" d="M17.5,7l-0.6-0.9c0,0-0.6-1-1.6-0.3l0,0c0,0-0.9,0.6-0.3,1.6l0.6,0.9c0,0,0.6,1,1.6,0.3l0,0       C17.2,8.6,18.1,8,17.5,7z"/>
				</g>
				<g>
					<path fill="#0076C0" d="M57.9,12.4l0.8-0.8c0,0,0.8-0.8,0-1.6l0,0c0,0-0.8-0.8-1.6,0l-0.8,0.8c0,0-0.8,0.8,0,1.6l0,0       C56.3,12.5,57.1,13.3,57.9,12.4z"/>
					<path fill="#0076C0" d="M10.8,56.3l-0.8,0.8c0,0-0.8,0.8,0,1.6l0,0c0,0,0.8,0.8,1.6,0l0.8-0.8c0,0,0.8-0.8,0-1.6l0,0       C12.5,56.3,11.7,55.5,10.8,56.3z"/>
				</g>
				<g>
					<path fill="#0076C0" d="M66.2,29.2l1-0.2c0,0,1.1-0.2,0.9-1.3l0,0c0,0-0.2-1.1-1.4-0.9L65.7,27c0,0-1.1,0.2-0.9,1.3l0,0       C64.8,28.3,65,29.4,66.2,29.2z"/>
					<path fill="#0076C0" d="M2.6,39.5l-1,0.2c0,0-1.1,0.2-0.9,1.3l0,0c0,0,0.2,1.1,1.4,0.9l1-0.2c0,0,1.1-0.2,0.9-1.3l0,0       C4,40.4,3.8,39.3,2.6,39.5z"/>
				</g>
			</g>
			<g>
				<g>
					<path fill="#0076C0" d="M60.5,53.2l0.9,0.6c0,0,1,0.6,1.6-0.3l0,0c0,0,0.6-0.9-0.3-1.6l-0.9-0.6c0,0-1-0.6-1.6,0.3l0,0       C60.2,51.6,59.5,52.6,60.5,53.2z"/>
					<path fill="#0076C0" d="M8.3,15.6L7.4,15c0,0-1-0.6-1.6,0.3l0,0c0,0-0.6,0.9,0.3,1.6L7,17.5c0,0,1,0.6,1.6-0.3l0,0       C8.6,17.2,9.2,16.2,8.3,15.6z"/>
				</g>
				<g>
					<path fill="#0076C0" d="M47.7,5.1l0.4-1c0,0,0.4-1.1-0.6-1.5l0,0c0,0-1-0.4-1.5,0.6l-0.4,1c0,0-0.4,1.1,0.6,1.5l0,0       C46.3,5.7,47.3,6.2,47.7,5.1z"/>
					<path fill="#0076C0" d="M21,63.7l-0.4,1c0,0-0.4,1.1,0.6,1.5l0,0c0,0,1,0.4,1.5-0.6l0.4-1c0,0,0.4-1.1-0.6-1.5l0,0       C22.5,63,21.5,62.6,21,63.7z"/>
				</g>
				<g>
					<path fill="#0076C0" d="M45.6,64.5l0.4,1c0,0,0.4,1.1,1.5,0.6l0,0c0,0,1-0.4,0.6-1.5l-0.4-1c0,0-0.4-1.1-1.5-0.6l0,0       C46.2,63,45.2,63.5,45.6,64.5z"/>
					<path fill="#0076C0" d="M23.1,4.2l-0.4-1c0,0-0.4-1.1-1.5-0.6l0,0c0,0-1,0.4-0.6,1.5l0.4,1c0,0,0.4,1.1,1.5,0.6l0,0       C22.5,5.7,23.6,5.3,23.1,4.2z"/>
				</g>
				<g>
					<path fill="#0076C0" d="M61.8,17.5l0.9-0.6c0,0,1-0.6,0.3-1.6l0,0c0,0-0.6-0.9-1.6-0.3l-0.9,0.6c0,0-1,0.6-0.3,1.6l0,0       C60.2,17.2,60.8,18.1,61.8,17.5z"/>
					<path fill="#0076C0" d="M7,51.3l-0.9,0.6c0,0-1,0.6-0.3,1.6l0,0c0,0,0.6,0.9,1.6,0.3l0.9-0.6c0,0,1-0.6,0.3-1.6l0,0       C8.6,51.6,8,50.7,7,51.3z"/>
				</g>
				<g>
					<path fill="#0076C0" d="M66.5,35.5h1.1c0,0,1.2,0,1.2-1.1l0,0c0,0,0-1.1-1.2-1.1h-1.1c0,0-1.2,0-1.2,1.1v0       C65.4,34.4,65.4,35.5,66.5,35.5z"/>
					<path fill="#0076C0" d="M2.2,33.3H1.2c0,0-1.2,0-1.2,1.1v0c0,0,0,1.1,1.2,1.1h1.1c0,0,1.2,0,1.2-1.1v0       C3.4,34.4,3.4,33.3,2.2,33.3z"/>
				</g>
			</g>
		</g>
		<g>
			<path fill="#0076C0" d="M51.6,10.7l0.1-0.2c0,0,0.6-0.8-0.2-1.4l-0.3-0.2c0,0-0.8-0.5-1.3,0.3l-0.1,0.2c0,0-0.5,0.8,0.3,1.4     l0.3,0.2C50.3,10.9,51.1,11.5,51.6,10.7z"/>
			<path fill="#0076C0" d="M17.2,58.1L17,58.3c0,0-0.5,0.8,0.3,1.4l0.3,0.2c0,0,0.8,0.5,1.3-0.3l0.2-0.2c0,0,0.5-0.8-0.3-1.4     l-0.3-0.2C18.5,57.8,17.7,57.3,17.2,58.1z"/>
			<path fill="#0076C0" d="M61.9,24.2l0.3-0.1c0,0,0.9-0.4,0.5-1.3l-0.1-0.3c0,0-0.4-0.9-1.3-0.5L61,22.1c0,0-0.9,0.4-0.6,1.3     l0.1,0.3C60.6,23.7,61,24.6,61.9,24.2z"/>
			<path fill="#0076C0" d="M6.9,44.6l-0.2,0.1c0,0-0.9,0.4-0.5,1.3l0.1,0.3c0,0,0.4,0.9,1.3,0.5l0.3-0.1c0,0,0.9-0.4,0.5-1.3     l-0.1-0.3C8.2,45.1,7.8,44.2,6.9,44.6z"/>
			<path fill="#0076C0" d="M62.9,41.2l0.3,0.1c0,0,1,0.2,1.2-0.8l0.1-0.3c0,0,0.2-0.9-0.8-1.1L63.3,39c0,0-1-0.2-1.2,0.7l-0.1,0.3     C62.1,40.1,61.9,41,62.9,41.2z"/>
			<path fill="#0076C0" d="M5.9,27.6l-0.3,0c0,0-1-0.2-1.2,0.8l-0.1,0.3c0,0-0.2,0.9,0.8,1.1l0.3,0c0,0,1,0.2,1.2-0.7l0.1-0.3     C6.7,28.7,6.8,27.8,5.9,27.6z"/>
			<path fill="#0076C0" d="M14.5,12.9l-0.2-0.2c0,0-0.7-0.7-1.4,0l-0.2,0.2c0,0-0.7,0.7,0,1.4l0.2,0.2c0,0,0.7,0.7,1.4,0l0.2-0.2     C14.5,14.3,15.2,13.6,14.5,12.9z"/>
			<path fill="#0076C0" d="M54.3,55.9l0.2,0.2c0,0,0.7,0.7,1.4,0l0.2-0.2c0,0,0.7-0.7,0-1.4l-0.2-0.2c0,0-0.7-0.7-1.4,0l-0.2,0.2     C54.3,54.5,53.6,55.2,54.3,55.9z"/>
			<path fill="#0076C0" d="M35.5,5.1l0-0.3c0,0,0-1-1-1h-0.3c0,0-1,0-1,1l0,0.3c0,0,0,1,1,1h0.3C34.6,6.1,35.5,6.1,35.5,5.1z"/>
			<path fill="#0076C0" d="M33.3,63.7l0,0.3c0,0,0,1,1,1h0.3c0,0,1,0,1-1v-0.3c0,0,0-1-1-1h-0.3C34.2,62.7,33.3,62.7,33.3,63.7z"/>
			<path fill="#0076C0" d="M29.8,5.4l-0.1-0.3c0,0-0.2-1-1.1-0.8l-0.3,0.1c0,0-0.9,0.2-0.8,1.2l0.1,0.3c0,0,0.2,1,1.1,0.8L29,6.6     C29,6.6,30,6.4,29.8,5.4z"/>
			<path fill="#0076C0" d="M39,63.3l0.1,0.3c0,0,0.2,1,1.1,0.8l0.3-0.1c0,0,0.9-0.2,0.8-1.2l-0.1-0.3c0,0-0.2-1-1.1-0.8l-0.3,0.1     C39.7,62.2,38.8,62.4,39,63.3z"/>
			<path fill="#0076C0" d="M61,46.6l0.2,0.1c0,0,0.9,0.4,1.3-0.5l0.1-0.3c0,0,0.4-0.9-0.5-1.3l-0.3-0.1c0,0-0.9-0.4-1.3,0.5     l-0.1,0.3C60.5,45.4,60.1,46.3,61,46.6z"/>
			<path fill="#0076C0" d="M7.8,22.1L7.5,22c0,0-0.9-0.4-1.3,0.5l-0.1,0.3c0,0-0.4,0.9,0.5,1.3l0.2,0.1c0,0,0.9,0.4,1.3-0.5l0.1-0.3     C8.3,23.4,8.7,22.5,7.8,22.1z"/>
			<path fill="#0076C0" d="M41.2,5.9l0.1-0.3c0,0,0.2-1-0.8-1.2l-0.3-0.1c0,0-0.9-0.2-1.1,0.8L39,5.4c0,0-0.2,1,0.7,1.2l0.3,0.1     C40.1,6.7,41,6.8,41.2,5.9z"/>
			<path fill="#0076C0" d="M27.6,62.9l-0.1,0.3c0,0-0.2,1,0.8,1.2l0.3,0.1c0,0,0.9,0.2,1.1-0.8l0.1-0.3c0,0,0.2-1-0.7-1.2l-0.3-0.1     C28.7,62.1,27.8,61.9,27.6,62.9z"/>
			<path fill="#0076C0" d="M49.7,59.4l0.1,0.2c0,0,0.5,0.8,1.3,0.3l0.3-0.2c0,0,0.8-0.5,0.2-1.4l-0.1-0.2c0,0-0.5-0.8-1.4-0.3L50,58     C50,58,49.2,58.6,49.7,59.4z"/>
			<path fill="#0076C0" d="M19.1,9.4l-0.2-0.2c0,0-0.5-0.8-1.3-0.3l-0.3,0.2c0,0-0.8,0.5-0.3,1.4l0.2,0.2c0,0,0.5,0.8,1.4,0.3     l0.3-0.2C18.8,10.8,19.6,10.2,19.1,9.4z"/>
			<path fill="#0076C0" d="M55.9,14.5l0.2-0.2c0,0,0.7-0.7,0-1.4l-0.2-0.2c0,0-0.7-0.7-1.4,0l-0.2,0.2c0,0-0.7,0.7,0,1.4l0.2,0.2     C54.5,14.5,55.2,15.2,55.9,14.5z"/>
			<path fill="#0076C0" d="M12.9,54.3l-0.2,0.2c0,0-0.7,0.7,0,1.4l0.2,0.2c0,0,0.7,0.7,1.4,0l0.2-0.2c0,0,0.7-0.7,0-1.4l-0.2-0.2     C14.3,54.3,13.6,53.6,12.9,54.3z"/>
			<path fill="#0076C0" d="M63.3,29.8l0.3,0c0,0,1-0.2,0.8-1.1l-0.1-0.3c0,0-0.2-0.9-1.2-0.8l-0.3,0c0,0-1,0.2-0.8,1.1l0.1,0.3     C62.2,29,62.4,30,63.3,29.8z"/>
			<path fill="#0076C0" d="M5.4,39L5.2,39c0,0-1,0.2-0.8,1.1l0.1,0.3c0,0,0.2,0.9,1.2,0.8l0.3-0.1c0,0,1-0.2,0.8-1.1l-0.1-0.3     C6.6,39.7,6.4,38.8,5.4,39z"/>
			<path fill="#0076C0" d="M58.1,51.6l0.2,0.1c0,0,0.8,0.5,1.4-0.3l0.2-0.3c0,0,0.5-0.8-0.3-1.4l-0.2-0.1c0,0-0.8-0.6-1.4,0.3     l-0.2,0.3C57.8,50.3,57.3,51.1,58.1,51.6z"/>
			<path fill="#0076C0" d="M10.7,17.2L10.4,17c0,0-0.8-0.6-1.4,0.3l-0.2,0.3c0,0-0.5,0.8,0.3,1.4l0.2,0.1c0,0,0.8,0.6,1.4-0.2     l0.2-0.3C10.9,18.5,11.5,17.7,10.7,17.2z"/>
			<path fill="#0076C0" d="M46.6,7.8l0.1-0.2c0,0,0.4-0.9-0.5-1.3l-0.3-0.1c0,0-0.9-0.4-1.3,0.5l-0.1,0.2c0,0-0.4,0.9,0.5,1.3     l0.3,0.1C45.4,8.3,46.3,8.7,46.6,7.8z"/>
			<path fill="#0076C0" d="M22.1,61L22,61.3c0,0-0.4,0.9,0.5,1.3l0.3,0.1c0,0,0.9,0.4,1.3-0.5l0.1-0.2c0,0,0.4-0.9-0.5-1.3l-0.3-0.1     C23.4,60.5,22.5,60.1,22.1,61z"/>
			<path fill="#0076C0" d="M44.6,61.9l0.1,0.2c0,0,0.4,0.9,1.3,0.5l0.3-0.1c0,0,0.9-0.4,0.5-1.3L46.6,61c0,0-0.4-0.9-1.3-0.5     l-0.3,0.1C45.1,60.6,44.2,61,44.6,61.9z"/>
			<path fill="#0076C0" d="M24.2,6.9l-0.1-0.2c0,0-0.4-0.9-1.3-0.5l-0.3,0.1c0,0-0.9,0.4-0.5,1.3l0.1,0.2c0,0,0.4,0.9,1.3,0.5     l0.3-0.1C23.7,8.2,24.6,7.8,24.2,6.9z"/>
			<path fill="#0076C0" d="M59.4,19.1l0.2-0.1c0,0,0.8-0.6,0.3-1.4l-0.2-0.3c0,0-0.5-0.8-1.4-0.3l-0.2,0.1c0,0-0.8,0.5-0.3,1.3     l0.2,0.3C58,18.8,58.6,19.6,59.4,19.1z"/>
			<path fill="#0076C0" d="M9.4,49.7l-0.2,0.1c0,0-0.8,0.6-0.3,1.4l0.2,0.3c0,0,0.5,0.8,1.4,0.3l0.2-0.1c0,0,0.8-0.6,0.3-1.4     L10.8,50C10.8,50,10.2,49.2,9.4,49.7z"/>
			<path fill="#0076C0" d="M63.7,35.5H64c0,0,1,0,1-1v-0.3c0,0,0-1-1-1h-0.3c0,0-1,0-1,1v0.3C62.7,34.6,62.7,35.5,63.7,35.5z"/>
			<path fill="#0076C0" d="M5.1,33.3l-0.3,0c0,0-1,0-1,1v0.3c0,0,0,1,1,1h0.3c0,0,1,0,1-1v-0.3C6.1,34.2,6.1,33.3,5.1,33.3z"/>
		</g>
	</g>
</g>
<g>
	<path fill="#00274D" d="M78.6,23.8c0-11.7,3.2-16.9,16.5-16.9c11.6,0,17.6,4.6,17.6,13.4c0,6-2.1,9.4-5.8,11.7v0.2   c4.9,2,7.9,6,7.9,13.7c0,10.2-6,15.9-16.9,15.9H86.1c-4.7,0-7.6-3.5-7.6-7.2V23.8z M94.7,29.7c4.5,0,6.3-2.1,6.3-6.5   c0-4.1-1.9-5.9-5.9-5.9c-3.6,0-4.9,1.6-4.9,4.9v6.3c0,0.7,0.5,1.2,1.2,1.2H94.7z M96.1,51.2c4.6,0,6.5-2.2,6.5-6.5   c0-4.7-2.6-6.4-6.6-6.4h-4.6c-0.6,0-1.2,0.5-1.2,1.2v10.7c0,0.7,0.7,1.1,1.2,1.1H96.1z"/>
	<path fill="#00274D" d="M148.4,21.7c1,0,1.5,0.5,1.5,1.5v21.9c0,12.8-4,17.3-15.9,17.3c-11.9,0-16.1-4.5-16.1-17.3V23.3   c0-1,0.5-1.5,1.5-1.5h7.9c1,0,1.5,0.5,1.5,1.5v23.4c0,4.4,1.4,5.7,5.1,5.7c3.6,0,4.8-1.3,4.8-5.7V23.3c0-1,0.5-1.5,1.5-1.5H148.4z"/>
	<path fill="#00274D" d="M160.8,43.5c-4.4-2-7.5-4.5-7.5-11.4c0-8.4,4.9-11.2,14.7-11.2c4.6,0,9.1,0.5,10.9,1.2   c0.8,0.3,1.3,1.2,1.1,2.4l-0.8,4.6c-0.2,1.1-0.4,1.6-1.5,1.6c-1.5,0-5.3-0.7-8.7-0.7c-3,0-4.7,0.6-4.7,2.6c0,2.2,2.4,2.8,5.6,4.3   l3.7,1.7c4.9,2.2,7.5,4.5,7.5,11.3c0,8.4-4.6,12.5-15.9,12.5c-2.9,0-8-0.5-9.7-1c-1.2-0.3-1.8-1.2-1.6-2.5l0.7-5.6   c0.1-0.7,0.5-1.1,1.2-1.1c1.2,0,4.2,0.7,8.8,0.7c4.6,0,5.8-1.1,5.8-2.9c0-2-1.3-2.6-4.3-4.1L160.8,43.5z"/>
	<path fill="#00274D" d="M200.2,35.8c0-8.6,2.2-14.8,16.2-14.8c13.9,0,16.1,6.3,16.1,14.8v24.7c0,0.6-0.4,1.2-1.3,1.2h-8.3   c-1.1,0-1.3-0.6-1.3-1.2V36.7c0-4.7-1.5-5.6-5.1-5.6c-3.5,0-5.3,0.9-5.3,5.6v23.8c0,0.8-0.5,1.2-1.2,1.2h-8.5   c-0.8,0-1.2-0.5-1.2-1.2V35.8z"/>
	<path fill="#00274D" d="M266.4,56.9c0.4,1.5-0.2,2.9-1.5,3.6c-1.9,1.1-6.3,1.8-11.4,1.8c-11.9,0-17.4-5.3-17.4-20.7   C236,26,242,21,252.9,21c10.2,0,15.2,5.8,15.2,16.2v3.4c0,4.3-1.9,6-6,6h-14.4c-0.5,0-0.6,0.2-0.6,0.5v0.2c0,3.4,1.7,5.3,7.3,5.3   c4.9,0,8-1.2,9.4-1.2c0.8,0,1.5,0.5,1.7,1.5L266.4,56.9z M257.4,38.4c0.6,0,0.8-0.3,0.8-0.8c0-5.2-1.9-7-5.2-7c-3.8,0-6,1.8-6,7   c0,0.5,0.2,0.8,0.8,0.8H257.4z"/>
	<path fill="#00274D" d="M278.4,43.5c-4.4-2-7.5-4.5-7.5-11.4c0-8.4,4.9-11.2,14.7-11.2c4.6,0,9,0.5,10.9,1.2   c0.8,0.3,1.3,1.2,1.1,2.4l-0.8,4.6c-0.2,1.1-0.4,1.6-1.5,1.6c-1.5,0-5.3-0.7-8.7-0.7c-3,0-4.7,0.6-4.7,2.6c0,2.2,2.4,2.8,5.6,4.3   l3.7,1.7c4.9,2.2,7.5,4.5,7.5,11.3c0,8.4-4.6,12.5-15.9,12.5c-2.9,0-8-0.5-9.7-1c-1.2-0.3-1.8-1.2-1.6-2.5l0.7-5.6   c0.1-0.7,0.5-1.1,1.2-1.1c1.2,0,4.2,0.7,8.8,0.7c4.6,0,5.8-1.1,5.8-2.9c0-2-1.3-2.6-4.3-4.1L278.4,43.5z"/>
	<path fill="#00274D" d="M307.7,43.5c-4.4-2-7.5-4.5-7.5-11.4c0-8.4,4.9-11.2,14.7-11.2c4.6,0,9.1,0.5,10.9,1.2   c0.8,0.3,1.3,1.2,1.1,2.4l-0.8,4.6c-0.2,1.1-0.4,1.6-1.5,1.6c-1.5,0-5.3-0.7-8.7-0.7c-3,0-4.7,0.6-4.7,2.6c0,2.2,2.4,2.8,5.6,4.3   l3.7,1.7c4.9,2.2,7.5,4.5,7.5,11.3c0,8.4-4.6,12.5-15.9,12.5c-2.9,0-8-0.5-9.7-1c-1.2-0.3-1.8-1.2-1.6-2.5l0.7-5.6   c0.1-0.7,0.5-1.1,1.2-1.1c1.2,0,4.2,0.7,8.8,0.7c4.6,0,5.8-1.1,5.8-2.9c0-2-1.3-2.6-4.3-4.1L307.7,43.5z"/>
	<g>
		<path fill="#00274D" d="M190.1,21L190.1,21c-0.1,0-5.7,0-5.7,5.8v15.2c0,0,0,0,0,0.1v18.3c0,1,0.5,1.4,1.3,1.4h8.5    c1.1,0,1.6-0.4,1.6-1.4V41.9V29.2v-2.4C195.7,26.8,195.7,21,190.1,21z"/>
		<path fill="#00274D" d="M190.9,6.3h-1.7c0,0-4.8,0-4.8,4.9l0,1.3c0,0,0,5,4.8,5h1.7c0,0,4.8,0,4.8-5v-1.3    C195.7,11.3,195.7,6.3,190.9,6.3z"/>
	</g>
</g>
<g>
	<g>
		<g>
			<path fill="#00274D" d="M486,71.5c0.1,0,0.1,0.1,0.1,0.1v3.7c0,0.5-0.1,0.8-0.4,1.2l-2.2,2.7c-0.2,0.2-0.2,0.4-0.2,0.7v4.8     c0,0.1-0.1,0.1-0.1,0.1h-0.7c-0.1,0-0.1-0.1-0.1-0.1v-4.8c0-0.3-0.1-0.5-0.3-0.7l-2.4-2.7c-0.3-0.4-0.4-0.7-0.4-1.2v-3.7     c0-0.1,0.1-0.1,0.1-0.1h0.7c0.1,0,0.1,0.1,0.1,0.1v3.6c0,0.3,0,0.4,0.2,0.6l2.1,2.5c0.1,0.1,0.2,0.1,0.3,0l2-2.5     c0.1-0.2,0.2-0.4,0.2-0.6v-3.6c0-0.1,0.1-0.1,0.1-0.1H486z"/>
			<path fill="#00274D" d="M496.7,80c0,3.7-0.7,5-3.3,5c-2.6,0-3.3-1.2-3.3-5c0-3.7,0.7-4.9,3.3-4.9C496,75.1,496.7,76.2,496.7,80z      M491.1,80c0,3.3,0.5,4.1,2.3,4.1c1.8,0,2.3-0.8,2.3-4.1c0-3.3-0.5-4-2.3-4C491.6,75.9,491.1,76.7,491.1,80z"/>
			<path fill="#00274D" d="M507.1,75.2c0.1,0,0.2,0.1,0.2,0.2v6.1c0,2.7-0.7,3.5-3.1,3.5c-2.4,0-3.1-0.8-3.1-3.5v-6.1     c0-0.1,0.1-0.2,0.2-0.2h0.6c0.1,0,0.2,0.1,0.2,0.2v6.2c0,2.1,0.6,2.5,2.1,2.5c1.6,0,2.1-0.4,2.1-2.5v-6.2c0-0.1,0.1-0.2,0.2-0.2     H507.1z"/>
			<path fill="#00274D" d="M512.1,77.3c0-1.7,0.6-2.2,2.2-2.2c0.7,0,1.2,0.1,1.5,0.2c0.3,0.1,0.3,0.1,0.3,0.4l0,0.3     c0,0.1-0.1,0.2-0.2,0.2c-0.1,0-0.8-0.1-1.4-0.1c-1,0-1.4,0.2-1.4,1.3v7.3c0,0.1-0.1,0.1-0.1,0.1h-0.7c-0.1,0-0.1-0.1-0.1-0.1     V77.3z"/>
			<path fill="#00274D" d="M526,83.9c0-0.1,0-0.1,0.1-0.1c0.2,0,0.9,0.2,2.5,0.2c2.3,0,2.8-0.8,2.8-2.5c0-1.6-0.7-2.1-2.7-3.1     c-2.1-1.1-3-1.7-3-3.8c0-2.3,0.9-3.2,3.6-3.2c1.1,0,2.1,0.1,2.5,0.2c0.2,0,0.2,0.1,0.2,0.3l0,0.6c0,0.1,0,0.1-0.1,0.1     c-0.2,0-1.1-0.2-2.5-0.2c-2,0-2.6,0.6-2.6,2.3c0,1.6,0.7,1.8,2.7,3c2.2,1.2,2.9,1.8,2.9,3.9c0,2.3-0.9,3.4-3.7,3.4     c-1,0-2.2-0.1-2.6-0.2c-0.2-0.1-0.3-0.1-0.2-0.4L526,83.9z"/>
			<path fill="#00274D" d="M543.1,75.2c0.1,0,0.2,0.1,0.2,0.2v6.1c0,2.7-0.7,3.5-3.1,3.5c-2.4,0-3.1-0.8-3.1-3.5v-6.1     c0-0.1,0.1-0.2,0.2-0.2h0.6c0.1,0,0.2,0.1,0.2,0.2v6.2c0,2.1,0.6,2.5,2.1,2.5c1.6,0,2.1-0.4,2.1-2.5v-6.2c0-0.1,0.1-0.2,0.2-0.2     H543.1z"/>
			<path fill="#00274D" d="M553.1,84.4c0,0.2,0,0.3-0.2,0.3c-0.3,0.1-1,0.2-1.7,0.2c-2.6,0-3.3-1.4-3.3-5c0-3.6,0.7-4.9,3.2-4.9     c0.8,0,1.5,0.1,1.8,0.2c0.2,0.1,0.3,0.1,0.2,0.3l0,0.4c0,0.1,0,0.1-0.1,0.1c-0.2,0-1-0.2-1.7-0.2c-1.9,0-2.4,1-2.4,4     c0,3,0.5,4.1,2.5,4.1c0.7,0,1.5-0.1,1.6-0.1c0.1,0,0.1,0.1,0.1,0.1L553.1,84.4z"/>
			<path fill="#00274D" d="M562.7,84.4c0,0.2,0,0.3-0.2,0.3c-0.3,0.1-1,0.2-1.7,0.2c-2.6,0-3.3-1.4-3.3-5c0-3.6,0.7-4.9,3.2-4.9     c0.8,0,1.5,0.1,1.8,0.2c0.2,0.1,0.3,0.1,0.2,0.3l0,0.4c0,0.1,0,0.1-0.1,0.1c-0.2,0-1-0.2-1.7-0.2c-1.9,0-2.4,1-2.4,4     c0,3,0.5,4.1,2.5,4.1c0.7,0,1.5-0.1,1.6-0.1c0.1,0,0.1,0.1,0.1,0.1L562.7,84.4z"/>
			<path fill="#00274D" d="M572.6,84.2c0,0.2-0.1,0.3-0.2,0.4c-0.3,0.1-1.2,0.4-2.2,0.4c-2.6,0-3.5-0.9-3.5-4.9c0-4.1,1-4.9,3.3-4.9     c2.1,0,3,1,3,4.4v0.3c0,0.4-0.2,0.5-0.5,0.5h-4.7c-0.1,0-0.1,0-0.1,0.1v0.2c0,3,0.8,3.5,2.7,3.5c1.1,0,2-0.3,2.2-0.3     c0.1,0,0.2,0.1,0.2,0.2L572.6,84.2z M571.9,79.5C571.9,79.5,572,79.5,571.9,79.5c0.1-3.2-0.7-3.6-2-3.6c-1.6,0-2.3,0.5-2.3,3.5     c0,0.1,0,0.1,0.1,0.1H571.9z"/>
			<path fill="#00274D" d="M578.5,79.8c-1.1-0.5-1.8-1-1.8-2.6c0-1.6,1.1-2.2,2.9-2.2c1.1,0,1.9,0.1,2.2,0.2c0.2,0,0.2,0.1,0.2,0.3     l0,0.4c0,0.1,0,0.2-0.2,0.2c-0.2,0-1.2-0.1-2.1-0.1c-1.2,0-2.1,0.2-2.1,1.4c0,1,0.4,1.3,1.5,1.9l1.2,0.6c1.4,0.7,2,1.2,2,2.5     c0,1.7-0.8,2.8-3.1,2.8c-1,0-1.8-0.1-2.1-0.2c-0.2,0-0.2-0.1-0.2-0.3l0-0.4c0-0.1,0-0.1,0.1-0.1c0.2,0,1.1,0.1,2.1,0.1     c1.7,0,2.2-0.7,2.2-1.8c0-1-0.4-1.2-1.6-1.9L578.5,79.8z"/>
			<path fill="#00274D" d="M588,79.8c-1.1-0.5-1.8-1-1.8-2.6c0-1.6,1-2.2,2.9-2.2c1.1,0,1.9,0.1,2.2,0.2c0.2,0,0.2,0.1,0.2,0.3     l0,0.4c0,0.1,0,0.2-0.2,0.2c-0.2,0-1.2-0.1-2.1-0.1c-1.2,0-2.1,0.2-2.1,1.4c0,1,0.4,1.3,1.5,1.9l1.2,0.6c1.4,0.7,2,1.2,2,2.5     c0,1.7-0.8,2.8-3.1,2.8c-1,0-1.8-0.1-2.1-0.2c-0.2,0-0.2-0.1-0.2-0.3l0-0.4c0-0.1,0-0.1,0.1-0.1c0.2,0,1.1,0.1,2.1,0.1     c1.7,0,2.2-0.7,2.2-1.8c0-1-0.4-1.2-1.6-1.9L588,79.8z"/>
		</g>
		<g>
			<path fill="#00274D" d="M333.4,83.9c0-0.1,0-0.1,0.1-0.1c0.2,0,0.9,0.2,2.5,0.2c2.3,0,2.8-0.8,2.8-2.5c0-1.6-0.7-2.1-2.7-3.1     c-2.1-1.1-3-1.7-3-3.8c0-2.3,0.9-3.2,3.6-3.2c1.1,0,2.1,0.1,2.5,0.2c0.2,0,0.2,0.1,0.2,0.3l0,0.6c0,0.1,0,0.1-0.1,0.1     c-0.2,0-1.1-0.2-2.5-0.2c-2,0-2.6,0.6-2.6,2.3c0,1.6,0.7,1.8,2.7,3c2.2,1.2,2.9,1.8,2.9,3.9c0,2.3-0.9,3.4-3.7,3.4     c-1,0-2.2-0.1-2.6-0.2c-0.2-0.1-0.3-0.1-0.2-0.4L333.4,83.9z"/>
			<path fill="#00274D" d="M347.2,71.5c0.1,0,0.2,0.1,0.2,0.2v1.9c0,0.1,0,0.2-0.2,0.2h-0.7c-0.1,0-0.2-0.1-0.2-0.2v-1.9     c0-0.1,0-0.2,0.2-0.2H347.2z M347.2,75.2c0.1,0,0.2,0.1,0.2,0.2v9.3c0,0.1-0.1,0.2-0.2,0.2h-0.7c-0.1,0-0.1-0.1-0.1-0.2v-9.3     c0-0.1,0.1-0.2,0.2-0.2H347.2z"/>
			<path fill="#00274D" d="M354.1,78.1c0-2.2,0.7-3,2.7-3c1.3,0,2.1,0.4,2.5,1.4c0,0.1,0.1,0.1,0.1,0c0.3-1,1.2-1.4,2.5-1.4     c2.1,0,2.7,0.9,2.7,3v6.5c0,0.1,0,0.2-0.2,0.2h-0.6c-0.1,0-0.2,0-0.2-0.2V78c0-1.5-0.5-2.1-1.9-2.1c-1.3,0-1.9,0.7-1.9,2.4v6.3     c0,0.1,0,0.2-0.1,0.2h-0.6c-0.1,0-0.2,0-0.2-0.1v-6.3c0-1.6-0.5-2.4-1.9-2.4c-1.4,0-1.9,0.6-1.9,2.1v6.6c0,0.1,0,0.2-0.2,0.2     h-0.6c-0.1,0-0.2,0-0.2-0.2L354.1,78.1z"/>
			<path fill="#00274D" d="M370.7,78.2c0-2,0.9-3.2,3.2-3.2c2.3,0,3.2,0.9,3.2,4.8c0,4.1-1.1,5.1-3.3,5.1c-1.5,0-2-0.6-2.1-0.6     c0,0-0.1,0-0.1,0.1V88c0,0.1-0.1,0.2-0.2,0.2h-0.6c-0.1,0-0.2-0.1-0.2-0.2V78.2z M371.6,82.6c0,1.1,0.9,1.5,2,1.5     c1.7,0,2.5-0.5,2.5-4.2c0-3.3-0.6-3.9-2.3-3.9c-1.7,0-2.2,0.8-2.2,2.4V82.6z"/>
			<path fill="#00274D" d="M383.9,71.5c0.1,0,0.2,0.1,0.2,0.2v13c0,0.1-0.1,0.2-0.2,0.2h-0.6c-0.1,0-0.2-0.1-0.2-0.2v-13     c0-0.1,0.1-0.2,0.2-0.2H383.9z"/>
			<path fill="#00274D" d="M391.7,71.5c0.1,0,0.2,0.1,0.2,0.2v1.9c0,0.1,0,0.2-0.2,0.2H391c-0.1,0-0.2-0.1-0.2-0.2v-1.9     c0-0.1,0-0.2,0.2-0.2H391.7z M391.6,75.2c0.1,0,0.2,0.1,0.2,0.2v9.3c0,0.1-0.1,0.2-0.2,0.2H391c-0.1,0-0.1-0.1-0.1-0.2v-9.3     c0-0.1,0.1-0.2,0.2-0.2H391.6z"/>
			<path fill="#00274D" d="M398.8,74.3c0-2.2,0.6-2.8,2.3-2.8c0.7,0,1.1,0.1,1.3,0.2c0.2,0.1,0.2,0.1,0.2,0.3l0,0.4     c0,0.1,0,0.1-0.1,0.1c-0.1,0-0.7-0.1-1.3-0.1c-1.1,0-1.4,0.4-1.4,1.9v0.9c0,0.1,0.1,0.1,0.1,0.1h2.1c0.1,0,0.2,0.1,0.2,0.2v0.5     c0,0.1,0,0.2-0.2,0.2h-2.1c-0.1,0-0.1,0-0.1,0.1v8.5c0,0.1-0.1,0.1-0.1,0.1H399c-0.1,0-0.2-0.1-0.2-0.1v-8.5     c0-0.1-0.1-0.1-0.1-0.1h-1.2c-0.1,0-0.2-0.1-0.2-0.2v-0.5c0-0.1,0.1-0.2,0.2-0.2h1.2c0.1,0,0.1,0,0.1-0.1V74.3z"/>
			<path fill="#00274D" d="M413,75.2c0.1,0,0.1,0.1,0.1,0.1v9.5c0,2.2-0.6,3.4-3.2,3.4c-1.1,0-1.9-0.1-2.2-0.2     c-0.2-0.1-0.2-0.1-0.2-0.3l0-0.4c0-0.1,0-0.1,0.1-0.1c0.2,0,1.2,0.2,2.2,0.2c2.1,0,2.3-1,2.3-2.5v-1.6c0,0,0,0-0.1,0     c-0.3,0.3-1.1,0.8-2.3,0.8c-2.1,0-2.9-0.8-2.9-3.3v-5.3c0-0.1,0.1-0.1,0.1-0.1h0.7c0.1,0,0.1,0.1,0.1,0.1v5.3     c0,2.1,0.6,2.5,2.1,2.5c1.4,0,2.1-0.7,2.1-1.5v-6.3c0-0.1,0-0.1,0.1-0.1H413z"/>
			<path fill="#00274D" d="M420.6,71.5c0.1,0,0.2,0.1,0.2,0.2v1.9c0,0.1,0,0.2-0.2,0.2h-0.7c-0.1,0-0.2-0.1-0.2-0.2v-1.9     c0-0.1,0-0.2,0.2-0.2H420.6z M420.6,75.2c0.1,0,0.2,0.1,0.2,0.2v9.3c0,0.1-0.1,0.2-0.2,0.2h-0.7c-0.1,0-0.1-0.1-0.1-0.2v-9.3     c0-0.1,0.1-0.2,0.2-0.2H420.6z"/>
			<path fill="#00274D" d="M427.5,78.4c0-2.4,0.6-3.4,3.2-3.4c2.6,0,3.2,0.9,3.2,3.4v6.2c0,0.1-0.1,0.1-0.1,0.1h-0.7     c-0.1,0-0.1-0.1-0.1-0.1v-6.2c0-2.1-0.6-2.5-2.3-2.5c-1.7,0-2.3,0.4-2.3,2.5v6.2c0,0.1-0.1,0.1-0.1,0.1h-0.7     c-0.1,0-0.1-0.1-0.1-0.1V78.4z"/>
			<path fill="#00274D" d="M445.9,83.2c-0.4,0.6-1,1.2-2.5,1.2c-2,0-3.2-0.9-3.2-4.7c0-3.5,0.9-4.6,3.2-4.6c1.2,0,2,0.4,2.4,1     c0.1,0.1,0.1,0.2,0.2,0l0.1-0.7c0-0.1,0.1-0.2,0.3-0.2h0.2c0.1,0,0.2,0.1,0.2,0.2v9.3c0,2.2-0.6,3.5-3.4,3.5     c-1.2,0-2-0.2-2.3-0.3c-0.1-0.1-0.2-0.1-0.2-0.3l0-0.4c0-0.1,0.1-0.2,0.2-0.2c0.2,0,1.3,0.2,2.2,0.2c2.2,0,2.5-1,2.5-2.7     L445.9,83.2L445.9,83.2z M445.9,77.7c0-0.9-0.7-1.8-2.3-1.8c-1.7,0-2.4,0.8-2.4,3.7c0,3.1,0.9,3.9,2.3,3.9c1.1,0,1.5-0.4,1.9-0.8     c0.2-0.2,0.4-0.8,0.4-1.9L445.9,77.7z"/>
		</g>
	</g>
	<g>
		<path fill="#0076C0" d="M579.9,13.3c1.5,0,2,0.8,2.2,2.1l0.8,5c0.2,1.3,0.8,1.5,2,1.5h6.4c1,0,1.5,0.5,1.5,1.5v6.5    c0,1-0.5,1.5-1.5,1.5h-7c-0.5,0-0.9,0.3-0.9,0.9V48c0,2.1,0.7,4.2,4.9,4.2c2.5,0,3.2-0.4,4.5-0.4c0.6,0,1.1,0.5,1.2,1.4l0.8,5.9    c0.2,1.2-0.3,1.9-1.6,2.4c-2.5,0.9-4.9,1.1-6.4,1.1c-11.6,0-14.2-4.9-14.2-13.2V14.6c0-0.7,0.5-1.3,1.3-1.3H579.9z"/>
		<path fill="#0076C0" d="M331.6,23.9c0-11.6,3.2-16.9,16.4-16.9c11.5,0,17.5,4.6,17.5,13.3c0,6-2.1,9.3-5.8,11.6v0.2    c4.9,2,7.9,5.9,7.9,13.6c0,10.2-6,15.9-16.9,15.9h-11.5c-4.7,0-7.5-3.5-7.5-7.2V23.9z M347.7,29.8c4.5,0,6.2-2.1,6.2-6.5    c0-4.1-1.9-5.9-5.9-5.9c-3.6,0-4.9,1.6-4.9,4.9v6.3c0,0.7,0.5,1.2,1.2,1.2H347.7z M349.1,51.3c4.5,0,6.5-2.2,6.5-6.5    c0-4.7-2.5-6.4-6.5-6.4h-4.6c-0.6,0-1.2,0.5-1.2,1.2v10.6c0,0.7,0.7,1.1,1.2,1.1H349.1z"/>
		<path fill="#0076C0" d="M380.3,7.8c1,0,1.5,0.5,1.5,1.5v50.8c0,1-0.5,1.5-1.5,1.5h-7.8c-1,0-1.5-0.5-1.5-1.5V9.4    c0-1,0.5-1.5,1.5-1.5H380.3z"/>
		<path fill="#0076C0" d="M416.7,21.9c1,0,1.5,0.5,1.5,1.5v21.8c0,12.8-4,17.2-15.8,17.2c-11.9,0-16-4.5-16-17.2V23.5    c0-1,0.5-1.5,1.5-1.5h7.9c1,0,1.5,0.5,1.5,1.5v23.3c0,4.4,1.4,5.7,5.1,5.7c3.6,0,4.8-1.3,4.8-5.7V23.5c0-1,0.5-1.5,1.5-1.5H416.7z    "/>
		<path fill="#0076C0" d="M452.5,56.9c0.4,1.5-0.2,2.9-1.5,3.6c-1.9,1.1-6.3,1.8-11.4,1.8c-11.9,0-17.3-5.3-17.3-20.6    c0-15.6,5.9-20.6,16.8-20.6c10.2,0,15.1,5.8,15.1,16.2v3.4c0,4.3-1.8,6-6,6h-14.3c-0.5,0-0.6,0.2-0.6,0.5v0.2    c0,3.4,1.7,5.3,7.2,5.3c4.9,0,7.9-1.2,9.3-1.2c0.8,0,1.5,0.5,1.7,1.5L452.5,56.9z M443.5,38.5c0.6,0,0.8-0.3,0.8-0.8    c0-5.2-1.8-7-5.2-7c-3.8,0-6,1.8-6,7c0,0.5,0.2,0.8,0.8,0.8H443.5z"/>
		<path fill="#0076C0" d="M494.9,33.8c0-9.7,3.5-12.6,11-12.6c4.2,0,7,0.5,8.9,1.1c1.9,0.6,2.5,1.4,1.9,3.6l-0.7,4    c-0.2,1-0.7,1.6-1.5,1.6c-1.3,0-3.2-0.4-5.2-0.4c-2.8,0-3.4,1.1-3.4,4.1v25.3c0,0.6-0.5,1.2-1.3,1.2h-8.3c-0.8,0-1.3-0.6-1.3-1.2    V33.8z"/>
		<path fill="#0076C0" d="M535.7,35.9c0-8.5,2.2-14.8,16.2-14.8c13.9,0,16,6.2,16,14.8v24.6c0,0.6-0.4,1.2-1.3,1.2h-8.3    c-1.1,0-1.3-0.6-1.3-1.2V36.8c0-4.7-1.5-5.6-5.1-5.6c-3.5,0-5.2,0.9-5.2,5.6v23.7c0,0.8-0.5,1.2-1.2,1.2H537    c-0.8,0-1.2-0.5-1.2-1.2V35.9z"/>
		<g>
			<path fill="#0076C0" d="M531,26.5c0,0,0-5.7-5.5-5.7h-0.1c0,0-5.5,0-5.5,5.7v0.4v14.5v18.8c0,1.1,0.5,1.5,1.3,1.5h8.3     c1.1,0,1.5-0.5,1.5-1.5V26.9c0,0,0,0,0,0V26.5z"/>
			<path fill="#0076C0" d="M526.2,6.4h-1.7c0,0-4.7,0-4.7,4.9l0,1.3c0,0,0,4.9,4.7,4.9h1.7c0,0,4.7,0,4.7-4.9v-1.3     C531,11.2,531,6.4,526.2,6.4z"/>
		</g>
		<g>
			<path fill="#0076C0" d="M474.4,21.1c-11.5,0.1-16.6,5.9-16.6,16V61v2.7v2.5c0,0,0,5.6,5.4,5.6h0.1c0,0,5.4,0,5.4-5.6v-4.2     c0-0.4,0.2-0.6,0.6-0.6c0.4,0,2.9,1.1,6.8,1.1c9.7,0,15-7.4,15-20.8C491.1,27.6,486.8,21.1,474.4,21.1z M473.3,52.5     c-3.7,0-4.6-0.7-4.6-3.6v-9.8c0-5.9,1.3-8,5.6-8c4.3,0,5.6,1.7,5.6,10.5C479.9,50.2,478.3,52.5,473.3,52.5z"/>
			<path fill="#0076C0" d="M464.1,74.1h-1.7c0,0-4.6,0-4.6,4.8v1.3c0,0,0,4.8,4.6,4.8h1.7c0,0,4.6,0,4.6-4.8l0-1.3     C468.7,78.9,468.7,74.1,464.1,74.1z"/>
		</g>
	</g>
</g>
<g>
</g>
<g>
</g>
<g>
</g>
<g>
</g>
<g>
</g>
<g>
</g>
</svg>
